<?xml version="1.0" encoding="UTF-8"?>
<svg version="1.1" xmlns="http://www.w3.org/2000/svg" width="360" height="360">
<path d="M0 0 C5.96021803 4.94767134 11.92297871 11.48725265 15.0234375 18.6796875 C14.8984375 21.4921875 14.8984375 21.4921875 14.0234375 23.6796875 C13.6934375 24.6696875 13.3634375 25.6596875 13.0234375 26.6796875 C13.6834375 26.6796875 14.3434375 26.6796875 15.0234375 26.6796875 C18.0234375 31.06430288 18.0234375 31.06430288 18.0234375 33.6796875 C18.6834375 33.3496875 19.3434375 33.0196875 20.0234375 32.6796875 C22.7734375 32.1171875 22.7734375 32.1171875 26.0234375 32.6796875 C27.43798828 34.19897461 27.43798828 34.19897461 28.84375 36.20703125 C29.36324219 36.9338208 29.88273438 37.66061035 30.41796875 38.40942383 C30.94777344 39.15861084 31.47757813 39.90779785 32.0234375 40.6796875 C33.04186507 42.04022294 34.06521543 43.39708904 35.09375 44.75 C36.11197917 46.1015625 37.13020833 47.453125 38.1484375 48.8046875 C38.66019531 49.48144531 39.17195312 50.15820312 39.69921875 50.85546875 C42.60669444 54.71964595 45.35921463 58.6416378 48.0234375 62.6796875 C49.28420014 64.43695667 50.5550398 66.18704053 51.8359375 67.9296875 C55.10547246 72.39257227 58.27590231 76.91086746 61.3828125 81.48828125 C64.14278786 85.17481977 67.45451775 88.09679678 70.9609375 91.0546875 C77.76603981 97.01388656 83.24280597 103.42342009 84.39503479 112.65780449 C84.5421007 116.1505356 84.56397221 119.62311451 84.54101562 123.11889648 C84.54644624 124.45374308 84.55357414 125.78858367 84.56225586 127.12341309 C84.5803828 130.7248279 84.57346581 134.32578077 84.56073952 137.92720294 C84.55055415 141.71149538 84.56002066 145.49575043 84.56628418 149.28004456 C84.57354547 155.63411497 84.56401392 161.98799896 84.54492188 168.34204102 C84.52316529 175.66702209 84.53020155 182.99155753 84.5522275 190.31652778 C84.57043625 196.62683063 84.57291293 202.93700006 84.56247282 209.24732071 C84.55626661 213.00683227 84.55532214 216.76613507 84.56861877 220.52563286 C84.58025656 224.06271626 84.57200917 227.59923079 84.54904175 231.13625336 C84.541313 233.03791543 84.55304329 234.93962617 84.56555176 236.84126282 C84.45130936 248.52428197 81.30487922 256.48965242 73.0234375 264.6796875 C72.1365625 265.6078125 71.2496875 266.5359375 70.3359375 267.4921875 C63.12557415 272.25374821 54.97478356 272.94199004 46.5234375 273.0546875 C45.84104004 273.06862549 45.15864258 273.08256348 44.45556641 273.09692383 C41.39235896 273.06759444 39.2662586 272.81108753 36.5546875 271.34375 C35.0234375 269.6796875 35.0234375 269.6796875 35.0234375 266.6796875 C30.7334375 266.6796875 26.4434375 266.6796875 22.0234375 266.6796875 C21.6934375 267.9996875 21.3634375 269.3196875 21.0234375 270.6796875 C17.53599381 273.00464996 16.15084701 272.93910557 12.02915955 272.96488953 C10.14828644 272.98380249 10.14828644 272.98380249 8.22941589 273.00309753 C6.83645683 273.00705799 5.44349719 273.01082019 4.05053711 273.0144043 C2.58490362 273.02534034 1.11927629 273.0371311 -0.34634399 273.04971313 C-4.33743404 273.0813794 -8.32849769 273.1005931 -12.31967473 273.11733603 C-16.5182879 273.13673232 -20.71682928 273.16646282 -24.91539001 273.19477844 C-31.99133691 273.24092133 -39.06729305 273.27926206 -46.14331055 273.31274414 C-54.25734287 273.35120473 -62.37125024 273.40045137 -70.48518187 273.45607442 C-78.33766612 273.50974768 -86.19017652 273.55664819 -94.0427227 273.60025978 C-97.35659711 273.61870545 -100.6704492 273.63916779 -103.98430061 273.66135216 C-119.19006643 273.76044292 -134.394317 273.82578687 -149.59545898 273.37036133 C-150.61419885 273.34770801 -151.63293871 273.32505468 -152.68254948 273.3017149 C-163.08221192 272.91148292 -173.00173457 270.46088674 -180.6640625 263.046875 C-186.92625157 256.06453419 -190.0710476 249.45610146 -190.13719177 239.99607849 C-190.1472374 238.86222214 -190.15728302 237.72836578 -190.16763306 236.56015015 C-190.17346405 235.32527863 -190.17929504 234.0904071 -190.18530273 232.81811523 C-190.19508652 231.51017502 -190.2048703 230.2022348 -190.21495056 228.85466003 C-190.24624425 224.52423029 -190.26659554 220.1937819 -190.28515625 215.86328125 C-190.29010223 214.75524387 -190.29010223 214.75524387 -190.29514813 213.6248219 C-190.32593038 206.64795968 -190.35261584 199.67109285 -190.36956692 192.6941824 C-190.39144239 183.79743242 -190.43336118 174.90128818 -190.50300449 166.00478023 C-190.55040664 159.73448371 -190.57452209 153.46434964 -190.5817638 147.19387966 C-190.58669651 143.45638207 -190.6015466 139.71956839 -190.6415081 135.98226738 C-190.67867602 132.4599126 -190.6866877 128.93862376 -190.67350197 125.41610909 C-190.67358067 123.52660603 -190.70323746 121.63717429 -190.73419189 119.7479248 C-190.64876672 109.58135282 -187.5587861 101.27275304 -180.6015625 93.7421875 C-176.23156754 89.79665121 -171.66389197 86.04144339 -165.7265625 85.2421875 C-162.70728665 84.9322251 -162.70728665 84.9322251 -160.8515625 81.9921875 C-160.2328125 80.8990625 -159.6140625 79.8059375 -158.9765625 78.6796875 C-155.41288208 73.2727241 -151.69924066 67.97764631 -147.9765625 62.6796875 C-146.80954853 61.013264 -145.64287734 59.34660039 -144.4765625 57.6796875 C-143.89519531 56.84953125 -143.31382812 56.019375 -142.71484375 55.1640625 C-141.58583173 53.5504633 -140.45815019 51.93593208 -139.33203125 50.3203125 C-135.46599812 44.77930014 -131.54657736 39.27898577 -127.6027832 33.79321289 C-125.26814541 30.53310096 -123.01752808 27.24302486 -120.8515625 23.8671875 C-115.18652829 15.32974157 -110.21105359 9.37286627 -100.0390625 6.9921875 C-86.25596044 5.58574851 -77.91228654 11.94913141 -67.15625 20.05078125 C-64.4081946 22.16332948 -64.4081946 22.16332948 -61.09765625 22.46484375 C-58.53336235 21.51562999 -56.63071562 20.22033531 -54.4140625 18.6171875 C-53.53234375 17.98425781 -52.650625 17.35132812 -51.7421875 16.69921875 C-50.37320313 15.69955078 -50.37320313 15.69955078 -48.9765625 14.6796875 C-48.10515625 14.04417969 -47.23375 13.40867187 -46.3359375 12.75390625 C-45.01335937 11.78904297 -45.01335937 11.78904297 -43.6640625 10.8046875 C-39.47537523 7.75565731 -35.27414006 4.72638568 -31.0390625 1.7421875 C-29.97816406 0.99066406 -28.91726562 0.23914062 -27.82421875 -0.53515625 C-19.85949458 -5.52813148 -7.80210426 -5.1337266 0 0 Z " fill="#252435" transform="translate(232.9765625,45.3203125)"/>
<path d="M0 0 C46.1514523 -0.1209091 46.1514523 -0.1209091 65.46875 -0.14648438 C78.81481376 -0.1642957 92.16082077 -0.18525158 105.50683594 -0.22631836 C115.22601516 -0.25621082 124.94514841 -0.27557267 134.66437232 -0.28226548 C139.81109742 -0.28617798 144.95769097 -0.29537969 150.10437393 -0.31719017 C154.94866058 -0.33755284 159.79276149 -0.34383421 164.63708687 -0.33932304 C166.41484016 -0.34014834 168.19259966 -0.34611529 169.97031593 -0.35761642 C172.39882428 -0.37255721 174.8266327 -0.36894802 177.25515747 -0.36076355 C178.30868005 -0.37387134 178.30868005 -0.37387134 179.38348591 -0.38724393 C184.93089601 -0.33676133 188.8822743 1.14092782 193.046875 4.796875 C193.60890625 5.44140625 194.1709375 6.0859375 194.75 6.75 C195.32234375 7.38421875 195.8946875 8.0184375 196.484375 8.671875 C199.7711792 13.72067734 200.24773576 19.12972706 200.1953125 25.02734375 C200.18564453 26.95610352 200.18564453 26.95610352 200.17578125 28.92382812 C200.15907601 30.26172154 200.14214619 31.59961217 200.125 32.9375 C200.11495322 34.30272783 200.10583036 35.6679628 200.09765625 37.03320312 C200.0741768 40.35554526 200.03830857 43.67779577 200 47 C191.585 47.495 191.585 47.495 183 48 C182.28656253 52.48483147 182.28656253 52.48483147 182 57 C187.94 57.33 193.88 57.66 200 58 C200 74.5 200 91 200 108 C192.09581789 108.06310258 184.19256073 108.12318494 176.28834534 108.15525055 C172.60667012 108.17102019 168.92520584 108.1920546 165.24365234 108.22631836 C161.69043291 108.25917666 158.13741662 108.27690804 154.58405685 108.28463173 C152.58458499 108.29278316 150.5851936 108.31615924 148.58584595 108.33988953 C138.198812 108.3417868 129.3561777 107.40445881 121.6953125 99.9296875 C116.09356345 93.5535031 115.33171939 87.78324873 115.62890625 79.3359375 C116.53481732 71.19227379 120.53731503 67.02741087 126.48828125 61.6640625 C131.55307947 58.30853522 136.99928357 57.7517914 142.95703125 57.65625 C144.23384766 57.62660156 145.51066406 57.59695312 146.82617188 57.56640625 C148.83193836 57.53299319 150.83770598 57.49960611 152.84350586 57.46826172 C154.79816535 57.4346138 156.75261436 57.38936298 158.70703125 57.34375 C159.8669458 57.32505859 161.02686035 57.30636719 162.22192383 57.28710938 C165.13976378 57.2806825 165.13976378 57.2806825 167 55 C167.23779528 51.9086614 166.98965019 49.96895056 166 47 C161.62528072 47.06956811 157.2514305 47.1578537 152.87744141 47.26245117 C151.39381957 47.29541697 149.91008085 47.32353417 148.42626953 47.34643555 C134.09786286 47.57348717 123.0690229 49.24467489 112.67578125 59.9375 C106.27618615 67.81392474 104.49633034 76.45287312 104.59765625 86.3828125 C105.62477235 95.61688542 109.85170204 104.18129683 116.78515625 110.3828125 C124.33288959 115.89385589 131.34934505 118.08115758 140.6262207 118.20532227 C141.27068649 118.21522186 141.91515228 118.22512146 142.57914734 118.23532104 C144.69465549 118.26673387 146.81018605 118.29161279 148.92578125 118.31640625 C150.39837708 118.33699328 151.87096724 118.3579902 153.34355164 118.37937927 C157.20845933 118.43441943 161.07341874 118.48390786 164.93841553 118.53222656 C168.88672457 118.58257392 172.83495903 118.63819072 176.78320312 118.69335938 C184.52207215 118.80071989 192.26100345 118.90221338 200 119 C200.11742499 123.29143157 200.18765996 127.58244273 200.25 131.875 C200.28351563 133.07898438 200.31703125 134.28296875 200.3515625 135.5234375 C200.44667838 144.27409865 199.51180471 151.6618883 193.875 158.625 C192 160 192 160 190 160 C190 160.66 190 161.32 190 162 C184.5361729 164.79936821 178.765372 164.38404819 172.7734375 164.47851562 C171.5359375 164.5181543 171.5359375 164.5181543 170.2734375 164.55859375 C169.15074463 164.57877563 169.15074463 164.57877563 168.00537109 164.59936523 C165.47577596 165.10472993 164.60479 166.02108162 163 168 C162.67 168.66 162.34 169.32 162 170 C157.71 170 153.42 170 149 170 C148.34 168.02 147.68 166.04 147 164 C98.49 164 49.98 164 0 164 C0 109.88 0 55.76 0 0 Z " fill="#FD7104" transform="translate(106,142)"/>
<path d="M0 0 C2.83203125 1.43359375 2.83203125 1.43359375 4.8125 3.4375 C5.53824219 4.15808594 6.26398438 4.87867188 7.01171875 5.62109375 C8.98240691 7.97895051 10.54468365 10.36891922 12.125 13 C13.4228354 15.2638958 13.4228354 15.2638958 15 17 C18.75643424 17.75413353 18.75643424 17.75413353 22 17 C22 17.66 22 18.32 22 19 C22.66 19 23.32 19 24 19 C24.70492893 20.21925475 25.38825901 21.4510106 26.0625 22.6875 C26.44535156 23.37199219 26.82820312 24.05648437 27.22265625 24.76171875 C28 27 28 27 27.4453125 29.45703125 C26.83659023 32.93315582 27.86091775 34.11007234 29.8125 37 C30.45960938 37.9590625 31.10671875 38.918125 31.7734375 39.90625 C34.92043772 44.278924 38.18845868 48.54640288 41.5078125 52.7890625 C45.13363964 57.4324695 48.56037121 62.21807705 52 67 C52.52980469 67.71542969 53.05960938 68.43085937 53.60546875 69.16796875 C57 73.77958683 57 73.77958683 57 76 C-0.42 76 -57.84 76 -117 76 C-111.4 70.4 -111.4 70.4 -107.8125 68.125 C-99.74623372 62.89247106 -91.97223528 57.26428487 -84.1875 51.625 C-77.95267085 47.10919683 -71.67936994 42.66679595 -65.3359375 38.3046875 C-56.76967991 32.40464504 -48.29193515 26.37142483 -39.84082031 20.30786133 C-38.73841952 19.51915314 -37.63359055 18.73382791 -36.52636719 17.9519043 C-32.99101765 15.45179253 -29.51973702 12.88333883 -26.0703125 10.265625 C-24.31801446 8.9683364 -22.56541139 7.67145972 -20.8125 6.375 C-20.00514404 5.74609863 -19.19778809 5.11719727 -18.3659668 4.46923828 C-12.35091606 0.07880599 -7.42392926 -1.34008661 0 0 Z " fill="#FCD72D" transform="translate(224,53)"/>
<path d="M0 0 C3.65780235 0.86065938 3.93666025 1.35039722 6.00390625 4.2890625 C6.5239624 5.01416016 7.04401855 5.73925781 7.57983398 6.48632812 C8.11036377 7.23333984 8.64089355 7.98035156 9.1875 8.75 C10.2062628 10.11028445 11.22961972 11.46714177 12.2578125 12.8203125 C13.27604167 14.171875 14.29427083 15.5234375 15.3125 16.875 C15.82425781 17.55175781 16.33601562 18.22851562 16.86328125 18.92578125 C19.77075694 22.78995845 22.52327713 26.7119503 25.1875 30.75 C26.44826264 32.50726917 27.7191023 34.25735303 29 36 C32.26953496 40.46288477 35.43996481 44.98117996 38.546875 49.55859375 C41.30685036 53.24513227 44.61858025 56.16710928 48.125 59.125 C54.93010231 65.08419906 60.40686847 71.49373259 61.55909729 80.72811699 C61.7061632 84.2208481 61.72803471 87.69342701 61.70507812 91.18920898 C61.71050874 92.52405558 61.71763664 93.85889617 61.72631836 95.19372559 C61.7444453 98.7951404 61.73752831 102.39609327 61.72480202 105.99751544 C61.71461665 109.78180788 61.72408316 113.56606293 61.73034668 117.35035706 C61.73760797 123.70442747 61.72807642 130.05831146 61.70898438 136.41235352 C61.68722779 143.73733459 61.69426405 151.06187003 61.71629 158.38684028 C61.73449875 164.69714313 61.73697543 171.00731256 61.72653532 177.31763321 C61.72032911 181.07714477 61.71938464 184.83644757 61.73268127 188.59594536 C61.74431906 192.13302876 61.73607167 195.66954329 61.71310425 199.20656586 C61.7053755 201.10822793 61.71710579 203.00993867 61.72961426 204.91157532 C61.61537186 216.59459447 58.46894172 224.55996492 50.1875 232.75 C48.8571875 234.1421875 48.8571875 234.1421875 47.5 235.5625 C40.28963665 240.32406071 32.13884606 241.01230254 23.6875 241.125 C23.00510254 241.13893799 22.32270508 241.15287598 21.61962891 241.16723633 C17.52796111 241.1280597 15.161194 240.61749064 12.1875 237.75 C12.5 234.375 12.5 234.375 13.1875 230.75 C16.23541986 228.71805343 17.00352326 228.48683711 20.4609375 228.37109375 C21.2859375 228.33693359 22.1109375 228.30277344 22.9609375 228.26757812 C23.81945312 228.24115234 24.67796875 228.21472656 25.5625 228.1875 C32.93411677 227.9827765 32.93411677 227.9827765 40.1875 226.75 C40.1875 226.09 40.1875 225.43 40.1875 224.75 C40.93 224.255 41.6725 223.76 42.4375 223.25 C48.07312805 218.12670177 49.38613693 211.26660317 49.796875 203.8671875 C49.86246268 201.45356092 49.90906547 199.03935012 49.9375 196.625 C49.96714844 195.38234375 49.99679687 194.1396875 50.02734375 192.859375 C50.09741731 189.82285389 50.15042355 186.78707277 50.1875 183.75 C49.38285309 183.75666183 48.57820618 183.76332367 47.74917603 183.77018738 C40.12934649 183.83054599 32.50963451 183.8760993 24.88962746 183.90543652 C20.97302595 183.92102661 17.05662363 183.94214147 13.14013672 183.97631836 C9.3534998 184.00915161 5.56705328 184.02690294 1.78028488 184.03463173 C0.34273664 184.0401326 -1.09480236 184.05087329 -2.53226852 184.06719017 C-16.18247123 184.21583373 -25.5680721 182.42762348 -35.6875 173.00390625 C-42.39168895 166.05408968 -46.05040813 157.79960849 -46.3125 148.125 C-45.8653281 138.27545054 -43.3298227 131.14347221 -36.8125 123.75 C-36.2865625 123.11964844 -35.760625 122.48929687 -35.21875 121.83984375 C-30.80207881 116.93358873 -26.06448469 114.69785453 -19.8125 112.75 C-19.2553833 112.5742041 -18.6982666 112.3984082 -18.12426758 112.21728516 C-12.85175884 111.15153569 -7.31631102 111.52383837 -1.94873047 111.50976562 C0.31188979 111.50000264 2.57162191 111.46892868 4.83203125 111.4375 C6.26561961 111.43097486 7.69921445 111.42572247 9.1328125 111.421875 C10.43750488 111.4125293 11.74219727 111.40318359 13.08642578 111.39355469 C14.10978027 111.51118164 15.13313477 111.62880859 16.1875 111.75 C18.34252531 114.98253796 18.65606135 116.00150923 18.1875 119.75 C17.06518555 121.38085938 17.06518555 121.38085938 15.1875 122.75 C12.31176758 123.13476562 12.31176758 123.13476562 8.83203125 123.15625 C6.93807617 123.18912109 6.93807617 123.18912109 5.00585938 123.22265625 C3.67058535 123.23343908 2.33529673 123.24254115 1 123.25 C-10.69867277 123.33103979 -19.29102309 123.51510639 -28.11328125 131.88671875 C-33.42840737 137.71502946 -33.35012437 143.75344682 -33.15625 151.37109375 C-32.51351361 157.68890035 -30.19691567 161.68101102 -25.6875 166.0625 C-17.33078173 172.3980126 -7.34568662 172.21238348 2.7265625 172.26171875 C4.10234134 172.27860151 5.4781051 172.29675647 6.85385132 172.31611633 C10.44084963 172.36323305 14.02778677 172.39328827 17.61499023 172.41955566 C21.28902177 172.44955692 24.96284734 172.49586241 28.63671875 172.54101562 C35.82032622 172.62812649 43.00344802 172.68839814 50.1875 172.75 C50.1875 156.25 50.1875 139.75 50.1875 122.75 C44.9075 122.75 39.6275 122.75 34.1875 122.75 C33.1975 121.76 32.2075 120.77 31.1875 119.75 C31.63194444 113.30555556 31.63194444 113.30555556 33.1875 111.75 C36.05017567 111.67674832 38.888219 111.65761795 41.75 111.6875 C42.55630859 111.69201172 43.36261719 111.69652344 44.19335938 111.70117188 C46.19143756 111.71299482 48.18947783 111.73093086 50.1875 111.75 C50.1179381 107.7842033 50.02965571 103.81927886 49.92504883 99.85424805 C49.87599065 97.85291389 49.84116863 95.85124694 49.80664062 93.84960938 C49.54716665 81.88305795 49.54716665 81.88305795 44.35546875 71.41015625 C43.70191406 70.88292969 43.04835938 70.35570312 42.375 69.8125 C41.72917969 69.26722656 41.08335937 68.72195312 40.41796875 68.16015625 C35.36009878 64.96244861 30.33671556 64.45530566 24.48062134 64.4715271 C23.72412115 64.4657347 22.96762097 64.4599423 22.18819654 64.45397437 C19.66399485 64.43702624 17.13997657 64.43410236 14.61572266 64.43115234 C12.80204828 64.42185058 10.98837818 64.41168154 9.17471313 64.40071106 C4.25787893 64.37342497 -0.65892665 64.35826573 -5.57581663 64.34528303 C-10.71680705 64.32964645 -15.85773906 64.30285789 -20.99868774 64.2772522 C-30.73077376 64.2304738 -40.46287078 64.19372511 -50.19501173 64.16057932 C-61.27599189 64.12235134 -72.35691336 64.07294293 -83.43784404 64.02259517 C-106.22935253 63.91928926 -129.02089872 63.83002446 -151.8125 63.75 C-151.1525 62.1 -150.4925 60.45 -149.8125 58.75 C-92.0625 58.75 -34.3125 58.75 25.1875 58.75 C24.8575 58.09 24.5275 57.43 24.1875 56.75 C22.86198514 56.75276538 22.86198514 56.75276538 21.50969219 56.75558662 C0.02810107 56.79971615 -21.45348226 56.83283243 -42.93510914 56.85362434 C-53.3233738 56.86394588 -63.71160825 56.87802294 -74.09985352 56.90087891 C-83.15209129 56.92078596 -92.20430718 56.93371005 -101.25656623 56.93817699 C-106.05160873 56.94078893 -110.84658862 56.94694627 -115.6416111 56.96146011 C-120.15180702 56.97500165 -124.66191435 56.97922961 -129.17212868 56.97621536 C-130.83019491 56.97676707 -132.48826401 56.98076488 -134.14631271 56.98841095 C-136.40496889 56.99831866 -138.66328779 56.99598432 -140.92195129 56.99050903 C-142.18757306 56.99235262 -143.45319483 56.99419621 -144.75716877 56.99609566 C-147.8125 56.75 -147.8125 56.75 -150.8125 54.75 C-147.10609919 52.27906613 -145.27199981 52.50311807 -140.84602356 52.50949097 C-140.13292217 52.50778212 -139.41982079 52.50607327 -138.68511027 52.50431263 C-136.28972794 52.50101189 -133.89462421 52.5120309 -131.49926758 52.52294922 C-129.78456122 52.52351321 -128.06985439 52.52319702 -126.35514832 52.52206421 C-121.69427547 52.52148921 -117.03350509 52.53326729 -112.37265611 52.54721212 C-107.50395108 52.55969501 -102.63524383 52.56088805 -97.76652527 52.56326294 C-88.54428458 52.5694849 -79.32209118 52.5859054 -70.09987134 52.60596192 C-59.60182191 52.62829866 -49.10377026 52.63930875 -38.605703 52.64935279 C-17.00794225 52.670271 4.5897759 52.70546088 26.1875 52.75 C25.64797699 52.00837112 25.10845398 51.26674225 24.55258179 50.50263977 C23.83961945 49.52248398 23.1266571 48.54232819 22.39208984 47.5324707 C21.68756683 46.56396683 20.98304382 45.59546295 20.25717163 44.59761047 C16.87715613 39.94712998 13.50600509 35.29028016 10.14746094 30.62426758 C7.50537938 26.95373244 4.85479349 23.29131553 2.1640625 19.65625 C1.70177246 19.02565674 1.23948242 18.39506348 0.76318359 17.74536133 C-0.09423135 16.57608735 -0.95808772 15.4114979 -1.82958984 14.25268555 C-4.09880113 11.13863683 -5.52399949 8.62798359 -5.8125 4.75 C-4.34858047 1.56382221 -3.39599048 0.90559746 0 0 Z " fill="#212134" transform="translate(255.8125,77.25)"/>
<path d="M0 0 C0 54.12 0 108.24 0 164 C-25 164 -25 164 -30 162 C-30 161.34 -30 160.68 -30 160 C-30.60457031 159.74992188 -31.20914063 159.49984375 -31.83203125 159.2421875 C-34.32786487 157.81214229 -35.22224043 156.57480307 -36.6875 154.125 C-37.31205078 153.10792969 -37.31205078 153.10792969 -37.94921875 152.0703125 C-39.87255756 148.28083455 -40.12809382 144.85423175 -40.14717102 140.63751221 C-40.15432632 139.5497348 -40.16148163 138.4619574 -40.16885376 137.34121704 C-40.17154266 136.1525705 -40.17423157 134.96392395 -40.17700195 133.73925781 C-40.18357315 132.48355988 -40.19014435 131.22786194 -40.19691467 129.93411255 C-40.21790933 125.77379626 -40.22831278 121.6134798 -40.23828125 117.453125 C-40.24233053 116.01819591 -40.2464475 114.58326702 -40.25063133 113.14833832 C-40.26967295 106.40579561 -40.28390611 99.66326377 -40.2922433 92.92069936 C-40.30201209 85.14970127 -40.32832631 77.3789883 -40.36874419 69.60809064 C-40.39894876 63.59349496 -40.41371627 57.57898082 -40.41702431 51.56431079 C-40.41936986 47.97576144 -40.42826508 44.38751705 -40.45348549 40.79904938 C-40.48119416 36.79195844 -40.4769219 32.7855011 -40.4699707 28.77832031 C-40.48278076 27.59777069 -40.49559082 26.41722107 -40.50878906 25.20089722 C-40.45616117 16.87103527 -39.10644 11.67867894 -33.625 5.1875 C-22.90791349 -3.74340542 -16.33728839 0 0 0 Z " fill="#FE7102" transform="translate(94,142)"/>
<path d="M0 0 C5.83117714 2.86975528 12.96377131 6.69320899 16.43359375 12.328125 C16.62050781 12.87984375 16.80742187 13.4315625 17 14 C11.53649529 17.83555297 6.05950788 21.65008787 0.5625 25.4375 C-3.60938282 28.31294847 -7.7305471 31.24789891 -11.8125 34.25 C-16.093956 37.38889736 -20.45602581 40.25646841 -25 43 C-23.88145414 46.72614153 -23.88145414 46.72614153 -21 49 C-22.32 49.99 -23.64 50.98 -25 52 C-24.01 52.99 -23.02 53.98 -22 55 C-22.78246094 55.56589844 -23.56492188 56.13179687 -24.37109375 56.71484375 C-25.38300781 57.44832031 -26.39492187 58.18179688 -27.4375 58.9375 C-28.44683594 59.66839844 -29.45617187 60.39929688 -30.49609375 61.15234375 C-32.82292608 62.77321885 -32.82292608 62.77321885 -34 64 C23.09 64 80.18 64 139 64 C139 64.66 139 65.32 139 66 C81.58 66.33 24.16 66.66 -35 67 C-35 67.66 -35 68.32 -35 69 C21.76 69 78.52 69 137 69 C137.33 69.99 137.66 70.98 138 72 C51.375 72.495 51.375 72.495 -37 73 C-37.495 74.485 -37.495 74.485 -38 76 C22.39 76.33 82.78 76.66 145 77 C145 77.33 145 77.66 145 78 C84.94 78 24.88 78 -37 78 C-37 132.12 -37 186.24 -37 242 C11.51 242 60.02 242 110 242 C110 242.33 110 242.66 110 243 C59.84 243.33 9.68 243.66 -42 244 C-42 243.34 -42 242.68 -42 242 C-43.65 242 -45.3 242 -47 242 C-47 242.99 -47 243.98 -47 245 C-47.66 245 -48.32 245 -49 245 C-49 245.66 -49 246.32 -49 247 C-48.34 247.66 -47.68 248.32 -47 249 C-49.31 249 -51.62 249 -54 249 C-53.34 248.67 -52.68 248.34 -52 248 C-52 247.34 -52 246.68 -52 246 C-52.70125 246.01160156 -53.4025 246.02320313 -54.125 246.03515625 C-59.86113102 246.08971184 -65.32778253 245.85618377 -71 245 C-71 244.01 -71 243.02 -71 242 C-63.74 242 -56.48 242 -49 242 C-49 187.88 -49 133.76 -49 78 C-56.26 78 -63.52 78 -71 78 C-71 77.67 -71 77.34 -71 77 C-68.03 76.505 -68.03 76.505 -65 76 C-65 75.67 -65 75.34 -65 75 C-60.38 75 -55.76 75 -51 75 C-51 72.69 -51 70.38 -51 68 C-48 66 -48 66 -45 66 C-45 65.34 -45 64.68 -45 64 C-44.34 64 -43.68 64 -43 64 C-43 63.34 -43 62.68 -43 62 C-41.515 61.505 -41.515 61.505 -40 61 C-39.505 61.495 -39.505 61.495 -39 62 C-37.01633305 62.13306157 -37.01633305 62.13306157 -35 61 C-33.20728609 57.51202512 -33.20728609 57.51202512 -32 54 C-32.99 53.505 -32.99 53.505 -34 53 C-34 52.01 -34 51.02 -34 50 C-36.55751507 51.27875754 -38.69552545 52.9293781 -41 54.625 C-46.28281571 58.49115575 -51.6223841 62.26716467 -57 66 C-57.33 65.34 -57.66 64.68 -58 64 C-49.94883024 51.84760807 -41.72878142 39.82936446 -33.3125 27.92578125 C-31.96382108 26.03945594 -31.96382108 26.03945594 -31 24 C-30.34 24 -29.68 24 -29 24 C-28.74476562 23.29617187 -28.48953125 22.59234375 -28.2265625 21.8671875 C-23.28057914 10.30555761 -14.26549019 -4.04306591 0 0 Z " fill="#383035" transform="translate(143,64)"/>
<path d="M0 0 C0.33 0.66 0.66 1.32 1 2 C0.34 2 -0.32 2 -1 2 C-0.67 54.8 -0.34 107.6 0 162 C0.66 162 1.32 162 2 162 C2 162.66 2 163.32 2 164 C-0.31 163.34 -2.62 162.68 -5 162 C-5 161.34 -5 160.68 -5 160 C-5.60457031 159.74992188 -6.20914063 159.49984375 -6.83203125 159.2421875 C-9.32786487 157.81214229 -10.22224043 156.57480307 -11.6875 154.125 C-12.31205078 153.10792969 -12.31205078 153.10792969 -12.94921875 152.0703125 C-14.87255756 148.28083455 -15.12809382 144.85423175 -15.14717102 140.63751221 C-15.15432632 139.5497348 -15.16148163 138.4619574 -15.16885376 137.34121704 C-15.17154266 136.1525705 -15.17423157 134.96392395 -15.17700195 133.73925781 C-15.18357315 132.48355988 -15.19014435 131.22786194 -15.19691467 129.93411255 C-15.21790933 125.77379626 -15.22831278 121.6134798 -15.23828125 117.453125 C-15.24233053 116.01819591 -15.2464475 114.58326702 -15.25063133 113.14833832 C-15.26967295 106.40579561 -15.28390611 99.66326377 -15.2922433 92.92069936 C-15.30201209 85.14970127 -15.32832631 77.3789883 -15.36874419 69.60809064 C-15.39894876 63.59349496 -15.41371627 57.57898082 -15.41702431 51.56431079 C-15.41936986 47.97576144 -15.42826508 44.38751705 -15.45348549 40.79904938 C-15.48119416 36.79195844 -15.4769219 32.7855011 -15.4699707 28.77832031 C-15.48278076 27.59777069 -15.49559082 26.41722107 -15.50878906 25.20089722 C-15.45616117 16.87103527 -14.10644 11.67867894 -8.625 5.1875 C-5.89160637 2.90967198 -3.24644533 1.43447585 0 0 Z " fill="#F2490B" transform="translate(69,142)"/>
<path d="M0 0 C2.26062026 -0.00976299 4.52035238 -0.04083695 6.78076172 -0.07226562 C8.21435008 -0.07879076 9.64794492 -0.08404315 11.08154297 -0.08789062 C12.38623535 -0.09723633 13.69092773 -0.10658203 15.03515625 -0.11621094 C16.57018799 0.06022949 16.57018799 0.06022949 18.13623047 0.24023438 C20.29125578 3.47277234 20.60479181 4.49174361 20.13623047 8.24023438 C19.01391602 9.87109375 19.01391602 9.87109375 17.13623047 11.24023438 C14.26049805 11.625 14.26049805 11.625 10.78076172 11.64648438 C8.88680664 11.67935547 8.88680664 11.67935547 6.95458984 11.71289062 C5.61931581 11.72367346 4.2840272 11.73277552 2.94873047 11.74023438 C-8.7499423 11.82127417 -17.34229262 12.00534077 -26.16455078 20.37695312 C-31.4796769 26.20526384 -31.4013939 32.24368119 -31.20751953 39.86132812 C-30.56478314 46.17913473 -28.2481852 50.17124539 -23.73876953 54.55273438 C-15.38205126 60.88824697 -5.39695615 60.70261785 4.67529297 60.75195312 C6.05107181 60.76883589 7.42683557 60.78699084 8.80258179 60.80635071 C12.38958009 60.85346742 15.97651724 60.88352265 19.5637207 60.90979004 C23.23775307 60.9397913 26.91157532 60.98625331 30.58544922 61.03125 C37.7689378 61.11684573 44.95244242 61.18438295 52.13623047 61.24023438 C52.13623047 64.87023437 52.13623047 68.50023437 52.13623047 72.24023438 C43.70363819 72.31004951 35.27116869 72.36320436 26.83835793 72.39567089 C22.92175642 72.41126099 19.0053541 72.43237584 15.08886719 72.46655273 C11.30223027 72.49938598 7.51578374 72.51713731 3.72901535 72.5248661 C2.29146711 72.53036697 0.85392811 72.54110766 -0.58353806 72.55742455 C-14.23374076 72.70606811 -23.61934163 70.91785786 -33.73876953 61.49414062 C-40.44295848 54.54432406 -44.10167766 46.28984287 -44.36376953 36.61523438 C-43.91659763 26.76568492 -41.38109223 19.63370659 -34.86376953 12.24023438 C-34.33783203 11.60988281 -33.81189453 10.97953125 -33.27001953 10.33007812 C-28.85334835 5.42382311 -24.11575422 3.1880889 -17.86376953 1.24023438 C-17.30665283 1.06443848 -16.74953613 0.88864258 -16.17553711 0.70751953 C-10.90302837 -0.35822994 -5.36758055 0.01407275 0 0 Z " fill="#110704" transform="translate(253.86376953125,188.759765625)"/>
<path d="M0 0 C5.83117714 2.86975528 12.96377131 6.69320899 16.43359375 12.328125 C16.62050781 12.87984375 16.80742187 13.4315625 17 14 C11.53649529 17.83555297 6.05950788 21.65008787 0.5625 25.4375 C-3.55921979 28.28175241 -7.64303141 31.17162393 -11.6875 34.125 C-15.30227625 36.7645287 -18.91886528 39.40038669 -22.5625 42 C-23.36816406 42.5775 -24.17382812 43.155 -25.00390625 43.75 C-27 45 -27 45 -29 45 C-29 45.66 -29 46.32 -29 47 C-30.90625 48.296875 -30.90625 48.296875 -33.5 49.75 C-37.52451975 52.08444755 -41.22864332 54.56905437 -44.90625 57.41015625 C-48.84522108 60.40112869 -52.93477597 63.18433253 -57 66 C-57.33 65.34 -57.66 64.68 -58 64 C-49.94883024 51.84760807 -41.72878142 39.82936446 -33.3125 27.92578125 C-31.96382108 26.03945594 -31.96382108 26.03945594 -31 24 C-30.34 24 -29.68 24 -29 24 C-28.74476562 23.29617187 -28.48953125 22.59234375 -28.2265625 21.8671875 C-23.28057914 10.30555761 -14.26549019 -4.04306591 0 0 Z " fill="#2A9FF5" transform="translate(143,64)"/>
<path d="M0 0 C18.72343064 -0.07002886 37.44683478 -0.12295809 56.17036915 -0.15543652 C64.8637053 -0.17091651 73.55696016 -0.19202758 82.25024414 -0.22631836 C89.82582629 -0.25618614 97.40134958 -0.27556676 104.97698897 -0.28226548 C108.98959906 -0.28618221 113.00204074 -0.29541038 117.01459694 -0.31719017 C120.78941722 -0.33751404 124.5639993 -0.34384219 128.33886909 -0.33932304 C129.72603397 -0.34015009 131.1132066 -0.34614029 132.50032425 -0.35761642 C134.39097111 -0.3724945 136.28174505 -0.36717698 138.17243958 -0.36076355 C139.23157971 -0.36352893 140.29071985 -0.36629431 141.38195515 -0.36914349 C144 0 144 0 145.87203503 1.36239147 C147 3 147 3 146.875 5.5625 C146 8 146 8 143 10 C140.31402493 10.26450634 140.31402493 10.26450634 137.00572205 10.28520203 C135.12484894 10.30411499 135.12484894 10.30411499 133.20597839 10.32341003 C131.81301933 10.32737049 130.42005969 10.33113269 129.02709961 10.3347168 C127.56146612 10.34565284 126.09583879 10.3574436 124.63021851 10.37002563 C120.63912846 10.4016919 116.64806481 10.4209056 112.65688777 10.43764853 C108.4582746 10.45704482 104.25973322 10.48677532 100.06117249 10.51509094 C92.98522559 10.56123383 85.90926945 10.59957456 78.83325195 10.63305664 C70.71921963 10.67151723 62.60531226 10.72076387 54.49138063 10.77638692 C46.63889638 10.83006018 38.78638598 10.87696069 30.9338398 10.92057228 C27.61996539 10.93901795 24.3061133 10.95948029 20.99226189 10.98166466 C1.96292845 11.10604127 -16.98780551 10.96896041 -36 10 C-36 9.67 -36 9.34 -36 9 C-28.08 8.67 -20.16 8.34 -12 8 C-11.67 7.34 -11.34 6.68 -11 6 C-10.01 6 -9.02 6 -8 6 C-8 5.34 -8 4.68 -8 4 C-7.13606817 4.16173675 -6.27213634 4.32347349 -5.38202477 4.49011135 C-2.15827424 4.97613789 0.85574812 5.13804446 4.11239624 5.15821838 C5.3154541 5.1680072 6.51851196 5.17779602 7.75802612 5.18788147 C9.06425934 5.19363693 10.37049255 5.1993924 11.71630859 5.20532227 C13.11619347 5.21491024 14.51607551 5.22492085 15.91595459 5.23532104 C19.70471643 5.26227666 23.4934906 5.28333659 27.28229475 5.30332303 C31.24613136 5.32524045 35.20993035 5.3526009 39.17373657 5.37937927 C46.67461801 5.42922851 54.17552042 5.47419606 61.67644274 5.51740164 C70.21816124 5.56684054 78.75984198 5.62173393 87.30152392 5.67708123 C104.86764768 5.79078196 122.43380654 5.89764678 140 6 C140 5.34 140 4.68 140 4 C138.90554565 4.16233124 137.81109131 4.32466248 136.68347168 4.49191284 C131.47384885 5.13871751 126.30786212 5.14007909 121.06445312 5.12939453 C119.99658569 5.13114685 118.92871826 5.13289917 117.82849121 5.13470459 C114.31272739 5.13909014 110.7970143 5.13619502 107.28125 5.1328125 C104.81994619 5.13348688 102.35864245 5.13445803 99.89733887 5.13571167 C94.7394955 5.13718452 89.58166947 5.1350488 84.42382812 5.13037109 C77.85205947 5.12469809 71.28033188 5.12793999 64.70856476 5.13394356 C59.6226776 5.13758086 54.53679994 5.1363957 49.45091248 5.13381577 C47.03030899 5.13315399 44.60970461 5.13394839 42.18910217 5.13629532 C29.41930063 5.14595345 16.73254113 5.0509575 4 4 C4 3.34 4 2.68 4 2 C2.68 2 1.36 2 0 2 C0 1.34 0 0.68 0 0 Z " fill="#262836" transform="translate(108,308)"/>
<path d="M0 0 C0.845625 0.07863281 1.69125 0.15726563 2.5625 0.23828125 C7.74332109 1.19308001 9.93216691 3.49479478 13 7.6875 C16.28307976 12.61211964 15.75925005 17.94567153 15 23.6875 C12.96893055 28.5187571 9.93469723 31.61533795 5.125 33.6875 C-0.37207495 35.29256196 -5.01021969 35.72065516 -10.25 33 C-14.82972907 29.14886419 -17.76728167 25.62696105 -19 19.6875 C-18.86375526 16.32175032 -18.4872512 13.01924469 -18 9.6875 C-17.34 9.6875 -16.68 9.6875 -16 9.6875 C-15.773125 8.945 -15.54625 8.2025 -15.3125 7.4375 C-13.72391487 4.10903592 -12.05001134 2.72084089 -9 0.6875 C-5.86732887 -0.37655074 -3.27447987 -0.33443621 0 0 Z " fill="#170805" transform="translate(247,208.3125)"/>
<path d="M0 0 C0.66 0 1.32 0 2 0 C2 3.96 2 7.92 2 12 C2.66 12 3.32 12 4 12 C4 10.02 4 8.04 4 6 C4.66 6 5.32 6 6 6 C7.22399452 12.64041122 7.11227753 19.20221697 7.0625 25.9375 C7.05798828 27.09830078 7.05347656 28.25910156 7.04882812 29.45507812 C7.03710647 32.30343934 7.0206976 35.15169222 7 38 C7.66 38 8.32 38 9 38 C8.23429306 48.71989722 4.00765014 54.94638631 -4 62 C-10.79298486 67.743662 -19.92000431 68.27799 -28.5 68.375 C-29.52335449 68.39566528 -29.52335449 68.39566528 -30.56738281 68.41674805 C-34.65927321 68.37859641 -37.02624678 67.86754775 -40 65 C-39.6875 61.625 -39.6875 61.625 -39 58 C-35.95208014 55.96805343 -35.18397674 55.73683711 -31.7265625 55.62109375 C-30.9015625 55.58693359 -30.0765625 55.55277344 -29.2265625 55.51757812 C-27.93878906 55.47793945 -27.93878906 55.47793945 -26.625 55.4375 C-19.25338323 55.2327765 -19.25338323 55.2327765 -12 54 C-12 53.34 -12 52.68 -12 52 C-11.2575 51.505 -10.515 51.01 -9.75 50.5 C-5.87820669 46.9801879 -4.66484117 42.87361325 -3 38 C-2.34 38 -1.68 38 -1 38 C-1.00523682 37.34628418 -1.01047363 36.69256836 -1.01586914 36.01904297 C-1.18272378 11.99619839 -1.18272378 11.99619839 0 0 Z " fill="#252637" transform="translate(308,250)"/>
<path d="M0 0 C22.44 0 44.88 0 68 0 C68 3.3 68 6.6 68 10 C59.72457704 10.09270357 51.44937122 10.16376616 43.17355728 10.20724869 C39.33068748 10.22811884 35.48817307 10.25642506 31.64550781 10.30175781 C27.93668885 10.34523745 24.22821158 10.36914142 20.51915741 10.37950897 C19.10453665 10.38689667 17.68993448 10.40132343 16.27545929 10.42292023 C14.29352577 10.45197615 12.311248 10.45363408 10.32910156 10.45410156 C9.20103088 10.46298401 8.07296021 10.47186646 6.91070557 10.48101807 C4 10 4 10 1.60443115 8.34661865 C0 6 0 6 0 0 Z " fill="#020102" transform="translate(238,250)"/>
<path d="M0 0 C0.77914261 0.16109253 1.55828522 0.32218506 2.36103821 0.48815918 C7.00087579 1.14077891 11.54349013 1.16888361 16.22338867 1.18945312 C17.74971169 1.20189308 17.74971169 1.20189308 19.30686951 1.21458435 C21.51661327 1.2319606 23.7263752 1.247134 25.93614769 1.26036072 C29.47060487 1.28156579 33.00497705 1.30859186 36.53938293 1.33703613 C44.0887208 1.39666454 51.63810274 1.44854519 59.1875 1.5 C69.03519526 1.56812861 78.88285219 1.64002413 88.73046875 1.71875 C90.51523432 1.73282898 90.51523432 1.73282898 92.33605576 1.74719238 C111.90059484 1.90700508 131.44755323 2.29057437 151 3 C151 3.99 151 4.98 151 6 C131.50036751 6.15495367 112.00069352 6.3029432 92.50094795 6.4429636 C83.44396366 6.50815541 74.38700561 6.57550432 65.33007812 6.64819336 C57.42286241 6.71164928 49.51562732 6.77079128 41.60834301 6.82505554 C37.43351694 6.85384821 33.25872883 6.8845947 29.08395767 6.92053413 C10.02153566 7.08315123 -8.9542295 6.98327327 -28 6 C-28 5.67 -28 5.34 -28 5 C-20.08 4.67 -12.16 4.34 -4 4 C-3.67 3.34 -3.34 2.68 -3 2 C-2.01 2 -1.02 2 0 2 C0 1.34 0 0.68 0 0 Z " fill="#383846" transform="translate(100,312)"/>
<path d="M0 0 C2.22525442 0.0031965 4.4492223 -0.02048576 6.67431641 -0.0456543 C8.08967932 -0.04792414 9.50504579 -0.04863225 10.92041016 -0.04760742 C12.19964355 -0.05058838 13.47887695 -0.05356934 14.796875 -0.05664062 C15.79928223 0.06622314 16.80168945 0.18908691 17.83447266 0.31567383 C19.98949796 3.54821179 20.303034 4.56718306 19.83447266 8.31567383 C18.7121582 9.9465332 18.7121582 9.9465332 16.83447266 11.31567383 C13.95874023 11.70043945 13.95874023 11.70043945 10.47900391 11.72192383 C8.58504883 11.75479492 8.58504883 11.75479492 6.65283203 11.78833008 C5.317558 11.79911291 3.98226939 11.80821498 2.64697266 11.81567383 C-12.12529665 11.60271426 -12.12529665 11.60271426 -24.41552734 18.94067383 C-27.2567091 21.72315348 -28.0941147 22.29782067 -32.16552734 23.31567383 C-32.16552734 19.35567383 -32.16552734 15.39567383 -32.16552734 11.31567383 C-29.85552734 10.65567383 -27.54552734 9.99567383 -25.16552734 9.31567383 C-25.16552734 7.99567383 -25.16552734 6.67567383 -25.16552734 5.31567383 C-24.50552734 5.31567383 -23.84552734 5.31567383 -23.16552734 5.31567383 C-22.83552734 4.32567383 -22.50552734 3.33567383 -22.16552734 2.31567383 C-15.08061681 -0.40719025 -7.48702643 -0.02258656 0 0 Z " fill="#090203" transform="translate(254.16552734375,188.684326171875)"/>
<path d="M0 0 C0.68943695 -0.00175232 1.3788739 -0.00350464 2.08920288 -0.00531006 C4.37923667 -0.00972861 6.66919387 -0.00679027 8.95922852 -0.00341797 C10.54484573 -0.00409108 12.13046285 -0.00506117 13.71607971 -0.00631714 C17.04429097 -0.00779418 20.37247544 -0.00563965 23.70068359 -0.00097656 C27.97262172 0.0047161 32.24449696 0.0014447 36.51643276 -0.00454903 C39.79259212 -0.00815843 43.06873651 -0.00701422 46.34489632 -0.00442123 C47.92020742 -0.00375278 49.49551986 -0.00457757 51.07082939 -0.00690079 C53.27121465 -0.009433 55.4714974 -0.00557845 57.671875 0 C58.92572495 0.00079559 60.17957489 0.00159119 61.47142029 0.00241089 C64.40063477 0.12939453 64.40063477 0.12939453 66.40063477 1.12939453 C66.40063477 3.10939453 66.40063477 5.08939453 66.40063477 7.12939453 C56.89989151 7.15251937 47.39915789 7.17031034 37.89839268 7.1812067 C33.48726473 7.18643522 29.07615597 7.1935323 24.66503906 7.20483398 C20.41162361 7.21566397 16.15822668 7.2216716 11.90479851 7.22427177 C10.27841844 7.22612582 8.65203943 7.22974605 7.02566719 7.23512459 C4.75553284 7.24233651 2.48547591 7.24338541 0.21533203 7.24291992 C-1.72659279 7.24625084 -1.72659279 7.24625084 -3.70774841 7.24964905 C-6.59936523 7.12939453 -6.59936523 7.12939453 -7.59936523 6.12939453 C-7.72436523 3.62939453 -7.72436523 3.62939453 -7.59936523 1.12939453 C-5.72061162 -0.74935909 -2.49998568 0.0015873 0 0 Z " fill="#FDF9EF" transform="translate(208.599365234375,148.87060546875)"/>
<path d="M0 0 C0.66 0.33 1.32 0.66 2 1 C4.30929719 1.10246675 6.62163785 1.13789623 8.93319702 1.14476013 C9.65487238 1.14828698 10.37654773 1.15181382 11.12009203 1.15544754 C13.55060811 1.1661654 15.98108503 1.16982085 18.41162109 1.17358398 C20.14924791 1.17988687 21.88687311 1.18665237 23.62449646 1.19384766 C27.37262002 1.2085357 31.12073726 1.22025305 34.86887741 1.22979546 C40.79303686 1.2452204 46.71714244 1.26916909 52.64126587 1.29469299 C69.48932496 1.36596984 86.33741493 1.42570466 103.18554688 1.47680664 C112.48578569 1.50509064 121.78597094 1.54046129 131.08615363 1.58346039 C136.97753815 1.61026786 142.86886206 1.62815152 148.76029563 1.63949764 C152.42393621 1.64861193 156.08750307 1.66596824 159.75110054 1.68567657 C161.45227082 1.69316143 163.15345999 1.6972337 164.85464668 1.69767189 C167.1741899 1.69875196 169.49335666 1.71197741 171.81283569 1.72825623 C173.11180975 1.73248816 174.41078381 1.7367201 175.74912071 1.74108028 C179 2 179 2 183 4 C122.28 4 61.56 4 -1 4 C-0.67 2.68 -0.34 1.36 0 0 Z " fill="#27181A" transform="translate(105,137)"/>
<path d="M0 0 C-1 3 -1 3 -3.3125 4.375 C-6.54974133 6.33240173 -8.10462763 7.70064809 -10 11 C-10.32479393 14.36135937 -10.23523602 17.63481807 -10 21 C-10.66 21 -11.32 21 -12 21 C-12.33 22.65 -12.66 24.3 -13 26 C-13.33 26 -13.66 26 -14 26 C-14.33 67.91 -14.66 109.82 -15 153 C-15.66 153 -16.32 153 -17 153 C-17.14051679 135.86629009 -17.24613982 118.73276145 -17.31087303 101.59860611 C-17.3417364 93.64187542 -17.38377146 85.68550394 -17.45263672 77.72900391 C-17.51267088 70.78948166 -17.55120374 63.85021971 -17.56453097 56.91044497 C-17.57231458 53.23990806 -17.59044658 49.57011542 -17.63438034 45.89981842 C-17.68317078 41.78998101 -17.68392462 37.68141559 -17.68115234 33.57128906 C-17.702724 32.37078415 -17.72429565 31.17027924 -17.746521 29.93339539 C-17.67163218 19.62274224 -14.44651043 11.29880739 -7.25 3.8125 C-3.13138686 0 -3.13138686 0 0 0 Z " fill="#171524" transform="translate(60,135)"/>
<path d="M0 0 C0 0.66 0 1.32 0 2 C-57.09 2 -114.18 2 -173 2 C-168.76791471 -0.11604265 -166.83037342 -0.25934984 -162.19247437 -0.28520203 C-161.50851455 -0.29169999 -160.82455474 -0.29819796 -160.11986887 -0.30489284 C-157.82906034 -0.32423264 -155.5384395 -0.32945138 -153.24755859 -0.3347168 C-151.60490858 -0.34565233 -149.96226407 -0.35744303 -148.31962585 -0.37002563 C-143.85914484 -0.40162816 -139.39868725 -0.42087176 -134.93812895 -0.43764853 C-130.27452097 -0.4569908 -125.61097839 -0.4867201 -120.94741821 -0.51509094 C-113.11763857 -0.56116005 -105.28785079 -0.59955748 -97.45800781 -0.63305664 C-88.39657057 -0.67188469 -79.3352382 -0.72115678 -70.27388704 -0.77638692 C-61.56541333 -0.82936442 -52.85691899 -0.87657011 -44.14839554 -0.92057228 C-40.43789224 -0.93932771 -36.7274046 -0.95983093 -33.01691818 -0.98166466 C-28.65198563 -1.00697392 -24.28705868 -1.0271496 -19.9220829 -1.043293 C-18.31680418 -1.05001824 -16.71153167 -1.05847254 -15.10627174 -1.06874657 C-12.92202278 -1.08242673 -10.73784027 -1.08991638 -8.55355835 -1.0957489 C-7.32908178 -1.1014474 -6.10460522 -1.1071459 -4.8430233 -1.11301708 C-2 -1 -2 -1 0 0 Z " fill="#26262B" transform="translate(281,134)"/>
<path d="M0 0 C0.66 0.33 1.32 0.66 2 1 C1.67 1.66 1.34 2.32 1 3 C1.66 3.33 2.32 3.66 3 4 C3 4.66 3 5.32 3 6 C4.32 6.33 5.64 6.66 7 7 C6.278125 7.226875 5.55625 7.45375 4.8125 7.6875 C0.9201137 9.50394694 -2.06137486 12.12274973 -4 16 C-4.66 16 -5.32 16 -6 16 C-6.35601557 22.4346518 -6.41114818 28.33573181 -3 34 C0.93443416 38.21771342 4.4540722 40.05357058 10.125 40.5625 C11.03507812 40.64628906 11.94515625 40.73007813 12.8828125 40.81640625 C13.58148438 40.87699219 14.28015625 40.93757813 15 41 C15 41.33 15 41.66 15 42 C10.38 42 5.76 42 1 42 C1.66 43.32 2.32 44.64 3 46 C-2.96097838 44.69149255 -6.2525264 41.59917214 -10 37 C-14.07733254 30.55518405 -13.7411314 23.4371674 -13 16 C-11.22929772 8.74012064 -5.61881038 4.51425791 0 0 Z " fill="#F87606" transform="translate(235,202)"/>
<path d="M0 0 C0.99 0 1.98 0 3 0 C4.29790547 2.59581094 4.13947417 4.49556483 4.15821838 7.40359497 C4.1680072 8.55066925 4.17779602 9.69774353 4.18788147 10.87957764 C4.19363693 12.14408752 4.1993924 13.40859741 4.20532227 14.71142578 C4.21489873 16.05160831 4.22490867 17.39178781 4.23532104 18.73196411 C4.2624013 22.37633816 4.28339393 26.02072521 4.30332303 29.66514444 C4.32516337 33.47151982 4.35256159 37.27785502 4.37937927 41.084198 C4.42933261 48.29480037 4.47426162 55.50542501 4.51740164 62.71607101 C4.56675147 70.92396836 4.62167794 79.1318254 4.67708123 87.33968377 C4.7909418 104.2264186 4.89777195 121.11319083 5 138 C4.01 138 3.02 138 2 138 C2 136.68 2 135.36 2 134 C1.34 134 0.68 134 0 134 C0 132.68 0 131.36 0 130 C0.66 130 1.32 130 2 130 C2 87.76 2 45.52 2 2 C1.34 2 0.68 2 0 2 C0 1.34 0 0.68 0 0 Z " fill="#132234" transform="translate(50,158)"/>
<path d="M0 0 C5.53846154 3.07692308 5.53846154 3.07692308 7 6 C7.41204834 10.63554388 6.87454146 13.30416098 4 17 C0.78477863 19.32826375 -2.10830425 19.39711181 -6 19 C-10.63235294 16.73529412 -10.63235294 16.73529412 -12 14 C-12.65631559 9.22764809 -12.67379368 6.00048153 -9.9375 1.9375 C-6.21508588 -0.51770931 -4.38737473 -0.69274338 0 0 Z " fill="#F0720A" transform="translate(248,216)"/>
<path d="M0 0 C0.66 0.33 1.32 0.66 2 1 C1.6875 2.875 1.6875 2.875 1 5 C0.01 5.66 -0.98 6.32 -2 7 C-2.46393721 9.46894245 -2.46393721 9.46894245 -2.39872742 12.40359497 C-2.41126556 13.55066925 -2.42380371 14.69774353 -2.4367218 15.87957764 C-2.43528671 17.14408752 -2.43385162 18.40859741 -2.43237305 19.71142578 C-2.44138563 21.05161446 -2.4517116 22.39179486 -2.46325684 23.73196411 C-2.49091263 27.3763791 -2.50012287 31.02063808 -2.50611091 34.66514444 C-2.5154724 38.47155894 -2.54167386 42.27785585 -2.56611633 46.084198 C-2.60984654 53.29479911 -2.63835333 60.50537748 -2.66143972 67.71607101 C-2.68845656 75.92400925 -2.73237013 84.13182958 -2.77772844 92.33968377 C-2.87066804 109.22639523 -2.94230599 126.11313212 -3 143 C-4.90873335 139.76823981 -5.25418296 137.36959188 -5.26742554 133.63751221 C-5.27595551 132.5497348 -5.28448547 131.4619574 -5.29327393 130.34121704 C-5.29236755 129.1525705 -5.29146118 127.96392395 -5.29052734 126.73925781 C-5.29724457 125.48355988 -5.30396179 124.22786194 -5.31088257 122.93411255 C-5.3285411 119.49175377 -5.33323798 116.04949445 -5.33451414 112.60709476 C-5.33593681 110.45416546 -5.34020868 108.30126136 -5.34550858 106.14833832 C-5.36401099 98.63077696 -5.37217925 91.1132865 -5.37060547 83.59570312 C-5.36940521 76.59970321 -5.39048409 69.60401238 -5.4220928 62.60809064 C-5.44829456 56.59348267 -5.45897108 50.57897536 -5.45769465 44.56431079 C-5.45718599 40.97577979 -5.46281471 37.38752329 -5.48405075 33.79904938 C-5.50711647 29.79192704 -5.49788855 25.78549097 -5.48583984 21.77832031 C-5.49707886 20.59777069 -5.50831787 19.41722107 -5.51989746 18.20089722 C-5.46853091 11.47126288 -5.06896288 5.06896288 0 0 Z " fill="#CD4414" transform="translate(59,149)"/>
<path d="M0 0 C0.46148437 0.39832031 0.92296875 0.79664063 1.3984375 1.20703125 C6.62104158 5.44910689 11.4722806 7.47508194 18 9 C18 9.33 18 9.66 18 10 C16.02 10 14.04 10 12 10 C12.66 12.97 13.32 15.94 14 19 C46.67 19.495 46.67 19.495 80 20 C80 20.33 80 20.66 80 21 C71.56740773 21.06981514 63.13493822 21.12296998 54.70212746 21.15543652 C50.78552595 21.17102661 46.86912363 21.19214147 42.95263672 21.22631836 C39.1659998 21.25915161 35.37955328 21.27690294 31.59278488 21.28463173 C30.15523664 21.2901326 28.71769764 21.30087329 27.28023148 21.31719017 C17.49508221 21.42374532 7.39595052 21.43385523 -0.5625 14.9375 C-1.52349609 14.17759766 -1.52349609 14.17759766 -2.50390625 13.40234375 C-4 12 -4 12 -5 10 C-4.01 10 -3.02 10 -2 10 C-2 9.01 -2 8.02 -2 7 C-0.68 6.34 0.64 5.68 2 5 C1.34 4.34 0.68 3.68 0 3 C0 2.01 0 1.02 0 0 Z " fill="#100604" transform="translate(226,240)"/>
<path d="M0 0 C0 16.5 0 33 0 50 C-8.00751317 50.04194856 -16.01462804 50.08201818 -24.02215576 50.10350037 C-27.75114649 50.11405813 -31.48004619 50.12816519 -35.20898438 50.15087891 C-38.80106762 50.1726219 -42.39306263 50.18457169 -45.9852066 50.18975449 C-47.35512938 50.19344764 -48.72504738 50.20065945 -50.09493256 50.21146011 C-52.01473779 50.22599349 -53.93463196 50.22681708 -55.85449219 50.22705078 C-56.94703308 50.231492 -58.03957397 50.23593323 -59.16522217 50.24050903 C-62 50 -62 50 -66 48 C-44.88 48 -23.76 48 -2 48 C-2 32.82 -2 17.64 -2 2 C-5.3 2 -8.6 2 -12 2 C-12 1.67 -12 1.34 -12 1 C-10.37512529 0.83211627 -8.75009558 0.66573213 -7.125 0.5 C-6.22007812 0.4071875 -5.31515625 0.314375 -4.3828125 0.21875 C-2 0 -2 0 0 0 Z " fill="#D26810" transform="translate(306,200)"/>
<path d="M0 0 C0.99 0.33 1.98 0.66 3 1 C0.525 5.455 0.525 5.455 -2 10 C-1.34 10 -0.68 10 0 10 C0 10.66 0 11.32 0 12 C1.32 12 2.64 12 4 12 C4 12.99 4 13.98 4 15 C4.804375 14.979375 5.60875 14.95875 6.4375 14.9375 C9 15 9 15 10 16 C11.32 16 12.64 16 14 16 C14 16.66 14 17.32 14 18 C3.11 18.495 3.11 18.495 -8 19 C4.87 19.495 4.87 19.495 18 20 C18 20.33 18 20.66 18 21 C17.07888428 21.01401855 17.07888428 21.01401855 16.13916016 21.02832031 C13.30035567 21.08269741 10.46308268 21.16620552 7.625 21.25 C6.65949219 21.26417969 5.69398437 21.27835938 4.69921875 21.29296875 C-2.25147229 21.52621342 -7.72768631 23.00760878 -14 26 C-13.84789062 25.39414063 -13.69578125 24.78828125 -13.5390625 24.1640625 C-12.07393838 19.50428662 -12.07393838 19.50428662 -13 15 C-12.34 15 -11.68 15 -11 15 C-11 14.01 -11 13.02 -11 12 C-10.2575 11.79375 -9.515 11.5875 -8.75 11.375 C-4.11455361 9.0572768 -2.11295226 4.57806323 0 0 Z " fill="#262331" transform="translate(76,120)"/>
<path d="M0 0 C1.58206057 0.00667536 3.16410534 0.0186375 4.74609375 0.03515625 C5.55240234 0.03966797 6.35871094 0.04417969 7.18945312 0.04882812 C9.18753131 0.06065107 11.18557158 0.07858711 13.18359375 0.09765625 C13.18359375 3.72765625 13.18359375 7.35765625 13.18359375 11.09765625 C10.57880492 11.17858755 7.97652722 11.23811059 5.37109375 11.28515625 C4.26411133 11.32286133 4.26411133 11.32286133 3.13476562 11.36132812 C-2.28441483 11.43489166 -2.28441483 11.43489166 -4.84375 9.8125 C-6.50408151 6.88524886 -5.51662285 4.24863096 -4.81640625 1.09765625 C-3.81640625 0.09765625 -3.81640625 0.09765625 0 0 Z " fill="#0C0303" transform="translate(292.81640625,188.90234375)"/>
<path d="M0 0 C1.17155876 4.10919864 0.93402857 7.13194286 -1 11 C0.65 11 2.3 11 4 11 C4 10.01 4 9.02 4 8 C6.475 8.495 6.475 8.495 9 9 C0.65281394 15.7586731 -8.18062834 21.87809342 -17 28 C-17.33 27.34 -17.66 26.68 -18 26 C-12.19247623 17.18160837 -6.30607211 8.47268348 0 0 Z " fill="#2B9FED" transform="translate(103,102)"/>
<path d="M0 0 C48.51 0 97.02 0 147 0 C147.99 1.98 147.99 1.98 149 4 C148.34 4.99 147.68 5.98 147 7 C146.67 5.02 146.34 3.04 146 1 C97.82 1 49.64 1 0 1 C0 0.67 0 0.34 0 0 Z " fill="#1E1220" transform="translate(106,307)"/>
<path d="M0 0 C0.74886475 0.00523682 1.49772949 0.01047363 2.26928711 0.01586914 C3.07817383 0.0190918 3.88706055 0.02231445 4.72045898 0.02563477 C5.5705957 0.03401367 6.42073242 0.04239258 7.29663086 0.05102539 C8.15063477 0.05553711 9.00463867 0.06004883 9.88452148 0.06469727 C12.00108749 0.07652166 14.11761771 0.0944577 16.23413086 0.11352539 C13.14603391 1.87815222 12.0010095 2.11352539 8.23413086 2.11352539 C8.23413086 2.77352539 8.23413086 3.43352539 8.23413086 4.11352539 C4.93413086 4.11352539 1.63413086 4.11352539 -1.76586914 4.11352539 C-1.76586914 5.10352539 -1.76586914 6.09352539 -1.76586914 7.11352539 C4.83413086 6.78352539 11.43413086 6.45352539 18.23413086 6.11352539 C18.23413086 7.10352539 18.23413086 8.09352539 18.23413086 9.11352539 C15.70121064 11.64644561 14.02898592 11.40058671 10.56616211 11.43579102 C9.47368164 11.43095703 9.47368164 11.43095703 8.35913086 11.42602539 C7.63854492 11.44213867 6.91795898 11.45825195 6.17553711 11.47485352 C1.90882835 11.47878235 -0.68425039 11.17094295 -3.76586914 8.11352539 C-2.75578702 0.1771659 -2.75578702 0.1771659 0 0 Z " fill="#222230" transform="translate(271.765869140625,306.886474609375)"/>
<path d="M0 0 C1.48831242 0.00667405 2.97660807 0.01863442 4.46484375 0.03515625 C5.22345703 0.03966797 5.98207031 0.04417969 6.76367188 0.04882812 C8.64326246 0.06064945 10.52281274 0.07858547 12.40234375 0.09765625 C12.52734375 2.97265625 12.52734375 2.97265625 12.40234375 6.09765625 C10.40234375 8.09765625 10.40234375 8.09765625 6.92578125 8.29296875 C5.54283407 8.27967118 4.15995721 8.25581857 2.77734375 8.22265625 C2.0709375 8.21363281 1.36453125 8.20460937 0.63671875 8.1953125 C-1.10821723 8.17173228 -2.8529792 8.13586086 -4.59765625 8.09765625 C-4.64007348 5.7647085 -4.63858562 3.43063058 -4.59765625 1.09765625 C-3.59765625 0.09765625 -3.59765625 0.09765625 0 0 Z " fill="#F8EDDF" transform="translate(165.59765625,147.90234375)"/>
<path d="M0 0 C0.61875 0.350625 1.2375 0.70125 1.875 1.0625 C2.57625 1.371875 3.2775 1.68125 4 2 C4.66 1.67 5.32 1.34 6 1 C6.66 1.66 7.32 2.32 8 3 C7.67 3.66 7.34 4.32 7 5 C4.6859378 5.73075648 2.35171131 6.40138258 0 7 C0.33 7.99 0.66 8.98 1 10 C-0.32 10 -1.64 10 -3 10 C-3 11.65 -3 13.3 -3 15 C-4.60875 15.6496875 -4.60875 15.6496875 -6.25 16.3125 C-8.55139812 17.28688227 -10.22994314 18.17245735 -12.25 19.6875 C-14 21 -14 21 -17 21 C-17 21.66 -17 22.32 -17 23 C-20 25 -20 25 -23 25 C-23 25.66 -23 26.32 -23 27 C-24.32 26.67 -25.64 26.34 -27 26 C-26.40574219 25.5875 -25.81148437 25.175 -25.19921875 24.75 C-19.47567154 20.76220972 -13.83461165 16.6844323 -8.25 12.50390625 C-6 11 -6 11 -4 11 C-4.66 9.68 -5.32 8.36 -6 7 C-4.68 7 -3.36 7 -2 7 C-1.34 4.69 -0.68 2.38 0 0 Z " fill="#1A2D41" transform="translate(164,67)"/>
<path d="M0 0 C0.95777344 0.04511719 1.91554687 0.09023438 2.90234375 0.13671875 C3.97162109 0.22373047 3.97162109 0.22373047 5.0625 0.3125 C5.0625 0.6425 5.0625 0.9725 5.0625 1.3125 C1.7625 1.3125 -1.5375 1.3125 -4.9375 1.3125 C-5.2675 2.3025 -5.5975 3.2925 -5.9375 4.3125 C-5.2775 4.6425 -4.6175 4.9725 -3.9375 5.3125 C-4.2675 6.6325 -4.5975 7.9525 -4.9375 9.3125 C-7.9075 8.8175 -7.9075 8.8175 -10.9375 8.3125 C-10.2775 7.6525 -9.6175 6.9925 -8.9375 6.3125 C-9.9275 6.6425 -10.9175 6.9725 -11.9375 7.3125 C-12.2675 8.3025 -12.5975 9.2925 -12.9375 10.3125 C-15 11 -15 11 -16.9375 11.3125 C-16.9375 12.6325 -16.9375 13.9525 -16.9375 15.3125 C-19.5775 15.3125 -22.2175 15.3125 -24.9375 15.3125 C-25.2675 16.3025 -25.5975 17.2925 -25.9375 18.3125 C-26.9275 18.6425 -27.9175 18.9725 -28.9375 19.3125 C-29.2675 19.9725 -29.5975 20.6325 -29.9375 21.3125 C-32.2515622 22.04325648 -34.58578869 22.71388258 -36.9375 23.3125 C-32.67261643 18.64723961 -27.80457609 15.30992228 -22.5625 11.8125 C-20.90841101 10.69857444 -19.25475811 9.58400101 -17.6015625 8.46875 C-16.80661377 7.93854248 -16.01166504 7.40833496 -15.19262695 6.86206055 C-13.13576382 5.44873259 -11.17865686 3.95397383 -9.20703125 2.42578125 C-5.69609712 0.15646779 -4.10106047 -0.25315188 0 0 Z " fill="#EAD544" transform="translate(218.9375,52.6875)"/>
<path d="M0 0 C0.66 0.33 1.32 0.66 2 1 C2.06666851 14.75963886 1.87741721 28.49580227 1.5 42.25 C1.45158341 44.0859312 1.40340547 45.92186871 1.35546875 47.7578125 C1.23971138 52.1719521 1.12079081 56.58599539 1 61 C0.67 61 0.34 61 0 61 C-0.02505615 59.68805664 -0.0501123 58.37611328 -0.07592773 57.02441406 C-0.17010671 52.15647633 -0.27030194 47.28867779 -0.37231445 42.42089844 C-0.41562358 40.31416073 -0.45730153 38.20738883 -0.49731445 36.10058594 C-0.55511427 33.07216081 -0.61878096 30.04390715 -0.68359375 27.015625 C-0.70030624 26.07382385 -0.71701874 25.13202271 -0.73423767 24.16168213 C-0.75418289 23.28107117 -0.77412811 22.40046021 -0.79467773 21.49316406 C-0.81022202 20.72039124 -0.8257663 19.94761841 -0.84178162 19.15142822 C-1.00049754 16.99323447 -1.45956167 15.09006712 -2 13 C-2.06743348 10.91765408 -2.08514472 8.83331443 -2.0625 6.75 C-2.04896484 5.13351563 -2.04896484 5.13351563 -2.03515625 3.484375 C-2.02355469 2.66453125 -2.01195312 1.8446875 -2 1 C-1.34 0.67 -0.68 0.34 0 0 Z " fill="#28293A" transform="translate(308,187)"/>
<path d="M0 0 C0.2475 0.53625 0.495 1.0725 0.75 1.625 C3.66390277 7.16141526 6.29342021 11.1467101 12 14 C15.32939739 14.59311121 18.62296865 14.8665205 22 15 C22 15.33 22 15.66 22 16 C17.38 16 12.76 16 8 16 C8.66 17.32 9.32 18.64 10 20 C4.01191871 18.68554313 0.96570677 15.38808974 -3 11 C-2.67 10.01 -2.34 9.02 -2 8 C-1.67 8 -1.34 8 -1 8 C-0.67 5.36 -0.34 2.72 0 0 Z " fill="#E67915" transform="translate(228,228)"/>
<path d="M0 0 C4.85110358 4.41009417 8.348107 9.58004353 12 15 C11.67 15.66 11.34 16.32 11 17 C9.02 17 7.04 17 5 17 C5 16.34 5 15.68 5 15 C2.03 15 -0.94 15 -4 15 C-4 14.34 -4 13.68 -4 13 C-2.68 13 -1.36 13 0 13 C0 11.35 0 9.7 0 8 C0.99 7.67 1.98 7.34 3 7 C2.505 6.401875 2.01 5.80375 1.5 5.1875 C0 3 0 3 0 0 Z " fill="#F5D732" transform="translate(268,111)"/>
<path d="M0 0 C0.66 0.33 1.32 0.66 2 1 C1.67 1.66 1.34 2.32 1 3 C1.66 3.33 2.32 3.66 3 4 C3 4.66 3 5.32 3 6 C4.32 6.33 5.64 6.66 7 7 C6.278125 7.226875 5.55625 7.45375 4.8125 7.6875 C0.9201137 9.50394694 -2.06137486 12.12274973 -4 16 C-4.66 16 -5.32 16 -6 16 C-6.33 17.32 -6.66 18.64 -7 20 C-7 17 -7 14 -7 11 C-7.33 10.67 -7.66 10.34 -8 10 C-8.33 10.66 -8.66 11.32 -9 12 C-9.66 11.67 -10.32 11.34 -11 11 C-9.92173635 9.72486237 -8.83714481 8.45507431 -7.75 7.1875 C-7.14671875 6.47980469 -6.5434375 5.77210938 -5.921875 5.04296875 C-4.07629602 3.08110329 -2.20054668 1.54330375 0 0 Z " fill="#DC6F0E" transform="translate(235,202)"/>
<path d="M0 0 C0.99 0.33 1.98 0.66 3 1 C3 2.32 3 3.64 3 5 C3.56847656 4.97679687 4.13695312 4.95359375 4.72265625 4.9296875 C9.92558648 4.80808312 14.07312243 5.32276508 19 7 C15.75378712 8.00875307 13.12156533 7.93314262 9.75 7.6875 C4.25562941 7.59188177 1.58691112 9.06955176 -2.44140625 12.6875 C-4 14 -4 14 -6 14 C-5.6875 12.125 -5.6875 12.125 -5 10 C-4.01 9.34 -3.02 8.68 -2 8 C-2.33 7.01 -2.66 6.02 -3 5 C-4.98 5 -6.96 5 -9 5 C-8.67 4.01 -8.34 3.02 -8 2 C-3.25 0.875 -3.25 0.875 -1 2 C-0.67 1.34 -0.34 0.68 0 0 Z " fill="#212131" transform="translate(209,46)"/>
<path d="M0 0 C-0.33 0.99 -0.66 1.98 -1 3 C-1.66 3 -2.32 3 -3 3 C-3 3.66 -3 4.32 -3 5 C-2.34 5.33 -1.68 5.66 -1 6 C-1.99 6.495 -1.99 6.495 -3 7 C9.87 7.495 9.87 7.495 23 8 C23 8.33 23 8.66 23 9 C22.07888428 9.01401855 22.07888428 9.01401855 21.13916016 9.02832031 C18.30035567 9.08269741 15.46308268 9.16620552 12.625 9.25 C11.65949219 9.26417969 10.69398437 9.27835938 9.69921875 9.29296875 C2.74852771 9.52621342 -2.72768631 11.00760878 -9 14 C-8.77183594 13.09121094 -8.77183594 13.09121094 -8.5390625 12.1640625 C-7.07393838 7.50428662 -7.07393838 7.50428662 -8 3 C-7.34 3 -6.68 3 -6 3 C-6 2.01 -6 1.02 -6 0 C-3 -1 -3 -1 0 0 Z " fill="#291B22" transform="translate(71,132)"/>
<path d="M0 0 C0 0.66 0 1.32 0 2 C32.67 2.495 32.67 2.495 66 3 C66 3.33 66 3.66 66 4 C57.5328485 4.04647764 49.06575092 4.08194724 40.59850311 4.10362434 C36.66620862 4.11403177 32.73400184 4.12813496 28.80175781 4.15087891 C25.00217332 4.17271635 21.20267284 4.18459147 17.4030304 4.18975449 C15.95826395 4.19343077 14.51350174 4.20060933 13.06877136 4.21146011 C5.79019564 4.2639192 -1.01130001 4.26427612 -8 2 C-8 1.67 -8 1.34 -8 1 C-5.23735711 0.40267181 -2.83967231 0 0 0 Z " fill="#370100" transform="translate(240,257)"/>
<path d="M0 0 C0.66 0 1.32 0 2 0 C2.33 7.92 2.66 15.84 3 24 C3.99 24.33 4.98 24.66 6 25 C6 27.97 6 30.94 6 34 C5.34 34 4.68 34 4 34 C3.67 32.02 3.34 30.04 3 28 C2.01 28 1.02 28 0 28 C0 18.76 0 9.52 0 0 Z " fill="#16213B" transform="translate(306,160)"/>
<path d="M0 0 C0.66 0 1.32 0 2 0 C4.50600326 3.75900489 4.59001354 7.63747564 4 12 C2.6875 14.5 2.6875 14.5 1 16 C0.01 16 -0.98 16 -2 16 C-2 15.34 -2 14.68 -2 14 C-2.66 14 -3.32 14 -4 14 C-4 12.68 -4 11.36 -4 10 C-3.34 10 -2.68 10 -2 10 C-2 8.02 -2 6.04 -2 4 C-1.34 4 -0.68 4 0 4 C0 2.68 0 1.36 0 0 Z " fill="#03030B" transform="translate(258,220)"/>
<path d="M0 0 C1.32 0.66 2.64 1.32 4 2 C3.67 2.99 3.34 3.98 3 5 C2.34 5 1.68 5 1 5 C1 5.66 1 6.32 1 7 C1.99 7.33 2.98 7.66 4 8 C-0.29 10.97 -4.58 13.94 -9 17 C-9.33 16.34 -9.66 15.68 -10 15 C-5.05 7.575 -5.05 7.575 0 0 Z " fill="#2D9EE6" transform="translate(95,113)"/>
<path d="M0 0 C0.99 0.33 1.98 0.66 3 1 C1.02133139 2.41736642 -0.95783743 3.83402267 -2.9375 5.25 C-3.55488037 5.69166504 -4.17226074 6.13333008 -4.80834961 6.58837891 C-8.37614417 9.13712021 -11.95197371 11.67378658 -15.5390625 14.1953125 C-16.29195557 14.72479492 -17.04484863 15.25427734 -17.82055664 15.79980469 C-19.28751557 16.8304939 -20.75541559 17.85984528 -22.22436523 18.88769531 C-25.18763386 20.97016297 -28.06690587 23.0547991 -30.87109375 25.3515625 C-33 27 -33 27 -35 27 C-33.6581656 22.97449681 -31.5772427 22.11714364 -28 20 C-27.34 20 -26.68 20 -26 20 C-26 19.34 -26 18.68 -26 18 C-24.05017465 16.59431196 -22.04049422 15.2704964 -20 14 C-19.0925 13.4225 -18.185 12.845 -17.25 12.25 C-15 11 -15 11 -13 11 C-13 10.34 -13 9.68 -13 9 C-11.3203125 7.7109375 -11.3203125 7.7109375 -9.125 6.375 C-8.40570313 5.92898437 -7.68640625 5.48296875 -6.9453125 5.0234375 C-5 4 -5 4 -3 4 C-3 3.34 -3 2.68 -3 2 C-2.01 1.34 -1.02 0.68 0 0 Z " fill="#282317" transform="translate(166,84)"/>
<path d="M0 0 C5.36966204 -0.44013623 5.36966204 -0.44013623 8 0 C9.6875 2.4375 9.6875 2.4375 11 5 C13.48400985 5.66347631 13.48400985 5.66347631 16 6 C17.8125 7.5625 17.8125 7.5625 19 9 C18.01 10.485 18.01 10.485 17 12 C16.60986284 13.9896995 16.26797351 15.99019869 16 18 C15.34 18 14.68 18 14 18 C13.814375 17.14728516 13.814375 17.14728516 13.625 16.27734375 C11.46709002 8.19866825 6.76731997 4.51154665 0 0 Z " fill="#29212C" transform="translate(291,142)"/>
<path d="M0 0 C6.56645547 0.88920751 10.4516668 4.99835753 14.625 9.9140625 C18 14.42045455 18 14.42045455 18 18 C16.109375 17.75390625 16.109375 17.75390625 14 17 C12.953125 15.15234375 12.953125 15.15234375 12.25 12.9375 C12.00765625 12.20402344 11.7653125 11.47054687 11.515625 10.71484375 C11.26039063 9.86599609 11.26039063 9.86599609 11 9 C9.68 9 8.36 9 7 9 C6.67 9.66 6.34 10.32 6 11 C4.68 10.01 3.36 9.02 2 8 C3.32 8 4.64 8 6 8 C5.89386164 5.54775306 5.89386164 5.54775306 5 3 C2.52363988 1.62533375 2.52363988 1.62533375 0 1 C0 0.67 0 0.34 0 0 Z " fill="#1E1D29" transform="translate(227,44)"/>
<path d="M0 0 C1.0625 1.8125 1.0625 1.8125 2 4 C1.67 4.99 1.34 5.98 1 7 C0.34 7 -0.32 7 -1 7 C-1 8.32 -1 9.64 -1 11 C-2.5 12.75 -2.5 12.75 -4 14 C-4.28875 13.360625 -4.5775 12.72125 -4.875 12.0625 C-5.82823451 9.84793921 -5.82823451 9.84793921 -8 9 C-8.3125 6.1875 -8.3125 6.1875 -8 3 C-5.14925356 0.68858396 -3.6860549 0 0 0 Z " fill="#292838" transform="translate(101,93)"/>
<path d="M0 0 C6.875 3.75 6.875 3.75 8 6 C8.41121825 10.62620533 7.85503289 13.29903144 5 17 C4.01 17.33 3.02 17.66 2 18 C1.67 16.68 1.34 15.36 1 14 C-0.32 14 -1.64 14 -3 14 C-3 13.34 -3 12.68 -3 12 C-1.68 12 -0.36 12 1 12 C1 10.02 1 8.04 1 6 C1.66 6 2.32 6 3 6 C3.98120464 9.05263664 3.98120464 10.94736336 3 14 C3.66 14 4.32 14 5 14 C5 10.7 5 7.4 5 4 C3.68 3.67 2.36 3.34 1 3 C0.67 2.01 0.34 1.02 0 0 Z " fill="#F5740F" transform="translate(247,216)"/>
<path d="M0 0 C0.66 0 1.32 0 2 0 C1.938125 0.928125 1.87625 1.85625 1.8125 2.8125 C1.69105736 5.98395103 1.69105736 5.98395103 3.5 7.875 C3.995 8.24625 4.49 8.6175 5 9 C3.02 10.65 1.04 12.3 -1 14 C-1.33 13.34 -1.66 12.68 -2 12 C-3.70840281 13.63412443 -4.93453047 14.86906094 -6 17 C-8.64860427 17.59355614 -11.29197322 17.74209269 -14 18 C-11 16 -11 16 -9 16 C-9 15.34 -9 14.68 -9 14 C-8.2575 13.505 -7.515 13.01 -6.75 12.5 C-2.87820669 8.9801879 -1.66484117 4.87361325 0 0 Z " fill="#2B273B" transform="translate(305,288)"/>
<path d="M0 0 C0.66 0 1.32 0 2 0 C2 0.66 2 1.32 2 2 C2.66 2 3.32 2 4 2 C4.33 2.99 4.66 3.98 5 5 C5.66 5.66 6.32 6.32 7 7 C5.35 7.66 3.7 8.32 2 9 C2 9.99 2 10.98 2 12 C1.01 12 0.02 12 -1 12 C-2.31626692 8.38026598 -3 5.90432869 -3 2 C-2.01 2 -1.02 2 0 2 C0 1.34 0 0.68 0 0 Z " fill="#040308" transform="translate(222,238)"/>
<path d="M0 0 C0.33 1.32 0.66 2.64 1 4 C1.66 4 2.32 4 3 4 C3 5.32 3 6.64 3 8 C3.99 8 4.98 8 6 8 C6.33 6.68 6.66 5.36 7 4 C8.98 7.3 10.96 10.6 13 14 C11.68 14.33 10.36 14.66 9 15 C9 13.35 9 11.7 9 10 C8.01 10.495 8.01 10.495 7 11 C7 11.99 7 12.98 7 14 C6.01 14 5.02 14 4 14 C1.89229241 11.11165997 1 9.61537605 1 6 C0.34 6 -0.32 6 -1 6 C-1.042721 4.33388095 -1.04063832 2.66617115 -1 1 C-0.67 0.67 -0.34 0.34 0 0 Z " fill="#30232C" transform="translate(49,288)"/>
<path d="M0 0 C1.32 0 2.64 0 4 0 C4.66 0.99 5.32 1.98 6 3 C6.99 3.33 7.98 3.66 9 4 C9.96891192 9.37305699 9.96891192 9.37305699 10 12 C8.5625 14 8.5625 14 7 15 C5.46554906 11.93109813 6.45015711 9.29905734 7 6 C6.34 6 5.68 6 5 6 C5 7.98 5 9.96 5 12 C4.34 12 3.68 12 3 12 C1.82923301 8.01939223 0.74250597 4.08378283 0 0 Z " fill="#FB7002" transform="translate(243,216)"/>
<path d="M0 0 C0.33 1.32 0.66 2.64 1 4 C1.66 4 2.32 4 3 4 C3 4.66 3 5.32 3 6 C3.66 6 4.32 6 5 6 C4.375 7.875 4.375 7.875 3 10 C-0.125 11.25 -0.125 11.25 -3 12 C-2.67 10.68 -2.34 9.36 -2 8 C-1.01 8 -0.02 8 1 8 C1 7.01 1 6.02 1 5 C0.01 5.495 0.01 5.495 -1 6 C-3.2072923 6.07092842 -5.41667452 6.08415025 -7.625 6.0625 C-8.81351563 6.05347656 -10.00203125 6.04445312 -11.2265625 6.03515625 C-12.14179688 6.02355469 -13.05703125 6.01195312 -14 6 C-14.33 4.68 -14.66 3.36 -15 2 C-14.195625 2.495 -14.195625 2.495 -13.375 3 C-9.6614774 4.56358846 -6.45155338 4.54923641 -2.6875 3.125 C-0.8410805 2.09561011 -0.8410805 2.09561011 0 0 Z " fill="#230C03" transform="translate(253,230)"/>
<path d="M0 0 C0.33 0.66 0.66 1.32 1 2 C1.99 1.67 2.98 1.34 4 1 C4.33 1.66 4.66 2.32 5 3 C5.66 2.67 6.32 2.34 7 2 C7.33 2.99 7.66 3.98 8 5 C7.34 5 6.68 5 6 5 C5.77963136 8.85645121 6.39644899 11.49223216 8 15 C6 15 6 15 4.375 13.625 C3 12 3 12 3 10 C2.34 10 1.68 10 1 10 C-0.83691257 6.21812119 -1.15837626 4.05431692 0 0 Z " fill="#25243E" transform="translate(253,80)"/>
<path d="M0 0 C0.74886475 0.00523682 1.49772949 0.01047363 2.26928711 0.01586914 C3.07817383 0.0190918 3.88706055 0.02231445 4.72045898 0.02563477 C5.5705957 0.03401367 6.42073242 0.04239258 7.29663086 0.05102539 C8.15063477 0.05553711 9.00463867 0.06004883 9.88452148 0.06469727 C12.00108749 0.07652166 14.11761771 0.0944577 16.23413086 0.11352539 C13.14603391 1.87815222 12.0010095 2.11352539 8.23413086 2.11352539 C8.23413086 2.77352539 8.23413086 3.43352539 8.23413086 4.11352539 C7.18612305 4.16959961 7.18612305 4.16959961 6.11694336 4.22680664 C5.20686523 4.29254883 4.29678711 4.35829102 3.35913086 4.42602539 C2.45420898 4.4840332 1.54928711 4.54204102 0.61694336 4.60180664 C-2.12808515 4.90172929 -2.12808515 4.90172929 -3.76586914 8.11352539 C-2.75578702 0.1771659 -2.75578702 0.1771659 0 0 Z " fill="#312326" transform="translate(271.765869140625,306.886474609375)"/>
<path d="M0 0 C0.33 0 0.66 0 1 0 C1.14695313 0.55324951 1.29390625 1.10649902 1.4453125 1.67651367 C3.26855632 7.8568125 6.00734829 12.30239719 10 17.3125 C10.80050781 18.34600586 10.80050781 18.34600586 11.6171875 19.40039062 C13.68465985 22.06701852 15.77356372 24.71553942 17.875 27.35546875 C19 29 19 29 19 31 C18.34 31 17.68 31 17 31 C13 25.58823529 13 25.58823529 13 23 C12.01 22.67 11.02 22.34 10 22 C8.41034429 19.78298853 7.27672514 17.42137527 6 15 C5.01 15 4.02 15 3 15 C2.814375 13.88625 2.814375 13.88625 2.625 12.75 C2.14438195 10.05299403 2.14438195 10.05299403 0.9375 8.0625 C-0.3119181 5.31378018 -0.13551557 2.98134247 0 0 Z " fill="#E7DA48" transform="translate(249,80)"/>
<path d="M0 0 C2.97 0.495 2.97 0.495 6 1 C5.34 1.33 4.68 1.66 4 2 C4 2.66 4 3.32 4 4 C3.01 4.33 2.02 4.66 1 5 C1.33 5.66 1.66 6.32 2 7 C-12.85 6.505 -12.85 6.505 -28 6 C-28 5.67 -28 5.34 -28 5 C-20.08 4.67 -12.16 4.34 -4 4 C-3.67 3.34 -3.34 2.68 -3 2 C-2.01 2 -1.02 2 0 2 C0 1.34 0 0.68 0 0 Z " fill="#555765" transform="translate(100,312)"/>
<path d="M0 0 C3.28788824 3.11016455 5.83735988 6.01618925 8 10 C7.34 10 6.68 10 6 10 C5.67 10.66 5.34 11.32 5 12 C2.9375 12.625 2.9375 12.625 1 13 C1 13.66 1 14.32 1 15 C0.01 14.67 -0.98 14.34 -2 14 C-1.67 13.01 -1.34 12.02 -1 11 C-0.34 11 0.32 11 1 11 C0.67 7.37 0.34 3.74 0 0 Z " fill="#272441" transform="translate(269,93)"/>
<path d="M0 0 C3 0.5 3 0.5 4.9375 2.3125 C6 4.5 6 4.5 5 7.5 C4.236875 7.025625 3.47375 6.55125 2.6875 6.0625 C0.03589452 4.39893903 0.03589452 4.39893903 -3 3.5 C-2.67 6.47 -2.34 9.44 -2 12.5 C-5.04996439 9.45003561 -5.79797087 8.6415971 -6 4.5 C-4.4741592 1.17905237 -3.63053496 0.60508916 0 0 Z " fill="#22222C" transform="translate(256,77.5)"/>
<path d="M0 0 C0.99 0.33 1.98 0.66 3 1 C3.75407101 3.30657014 4.411438 5.645752 5 8 C5.90867711 10.40532177 6.85097795 12.70195591 8 15 C5.6174032 14.60799155 4.28328262 14.27060945 2.515625 12.58203125 C-0.31456228 8.62501014 -1.72131237 6.04918659 -1 1 C-0.67 0.67 -0.34 0.34 0 0 Z " fill="#20202E" transform="translate(47,293)"/>
<path d="M0 0 C0.66 0.33 1.32 0.66 2 1 C1.67 1.66 1.34 2.32 1 3 C2.89353366 4.89353366 4.84526801 6.4198632 7 8 C5.02 8.99 5.02 8.99 3 10 C3 9.34 3 8.68 3 8 C0.69 8.33 -1.62 8.66 -4 9 C-4.66 7.68 -5.32 6.36 -6 5 C-4.02 3.35 -2.04 1.7 0 0 Z " fill="#2C2B3B" transform="translate(193,53)"/>
<path d="M0 0 C0.61875 0.350625 1.2375 0.70125 1.875 1.0625 C2.57625 1.371875 3.2775 1.68125 4 2 C4.66 1.67 5.32 1.34 6 1 C6.66 1.66 7.32 2.32 8 3 C7.67 3.66 7.34 4.32 7 5 C4.6859378 5.73075648 2.35171131 6.40138258 0 7 C0.33 7.99 0.66 8.98 1 10 C-0.32 10 -1.64 10 -3 10 C-3.33 10.99 -3.66 11.98 -4 13 C-4.66 11.02 -5.32 9.04 -6 7 C-4.68 7 -3.36 7 -2 7 C-1.34 4.69 -0.68 2.38 0 0 Z " fill="#2B2E41" transform="translate(164,67)"/>
<path d="M0 0 C0.86061035 0.15847412 1.7212207 0.31694824 2.60791016 0.48022461 C5.86124907 0.97873897 8.98624806 1.20249374 12.2734375 1.31640625 C13.42714844 1.35830078 14.58085938 1.40019531 15.76953125 1.44335938 C16.95933594 1.48267578 18.14914063 1.52199219 19.375 1.5625 C21.19451172 1.62727539 21.19451172 1.62727539 23.05078125 1.69335938 C26.03375032 1.79905513 29.01679742 1.90115321 32 2 C32 2.33 32 2.66 32 3 C31.26362305 3.02505615 30.52724609 3.0501123 29.76855469 3.07592773 C26.42886622 3.19204273 23.08944903 3.31469918 19.75 3.4375 C18.59113281 3.47681641 17.43226562 3.51613281 16.23828125 3.55664062 C14.56572266 3.61948242 14.56572266 3.61948242 12.859375 3.68359375 C11.31975098 3.73858032 11.31975098 3.73858032 9.74902344 3.79467773 C7.06711134 3.91107109 7.06711134 3.91107109 4.80566406 4.57836914 C2.13105028 5.20290375 0.41577673 4.14078346 -2 3 C-1.34 2.01 -0.68 1.02 0 0 Z " fill="#302C3A" transform="translate(64,312)"/>
<path d="M0 0 C0.66 0 1.32 0 2 0 C2 1.98 2 3.96 2 6 C2.66 6.33 3.32 6.66 4 7 C4.73075648 9.3140622 5.40138258 11.64828869 6 14 C5.34 14 4.68 14 4 14 C4 13.34 4 12.68 4 12 C3.38125 11.731875 2.7625 11.46375 2.125 11.1875 C0 10 0 10 -2 7 C-1.67873872 4.36565746 -1.18644952 2.37289903 0 0 Z " fill="#E64A12" transform="translate(60,290)"/>
<path d="M0 0 C-3.24621288 1.00875307 -5.87843467 0.93314262 -9.25 0.6875 C-14.74437059 0.59188177 -17.41308888 2.06955176 -21.44140625 5.6875 C-23 7 -23 7 -25 7 C-24.7890625 5.171875 -24.7890625 5.171875 -24 3 C-16.09723746 -2.7529689 -8.9717301 -2.92954452 0 0 Z " fill="#272214" transform="translate(228,53)"/>
<path d="M0 0 C0.99 0 1.98 0 3 0 C3 0.66 3 1.32 3 2 C2.34 2 1.68 2 1 2 C1 2.66 1 3.32 1 4 C2.32 3.67 3.64 3.34 5 3 C5.33 3.66 5.66 4.32 6 5 C4.68 5.33 3.36 5.66 2 6 C2 6.66 2 7.32 2 8 C0.35 8 -1.3 8 -3 8 C-3 7.34 -3 6.68 -3 6 C-3.66 6 -4.32 6 -5 6 C-4.67 4.68 -4.34 3.36 -4 2 C-2.68 2 -1.36 2 0 2 C0 1.34 0 0.68 0 0 Z " fill="#282330" transform="translate(141,92)"/>
<path d="M0 0 C0.66 0.33 1.32 0.66 2 1 C1.01 2.485 1.01 2.485 0 4 C-0.66 4 -1.32 4 -2 4 C-2 4.66 -2 5.32 -2 6 C-1.01 6 -0.02 6 1 6 C1.33 5.34 1.66 4.68 2 4 C2.66 5.65 3.32 7.3 4 9 C2.68 9.33 1.36 9.66 0 10 C0 9.34 0 8.68 0 8 C-1.65 8 -3.3 8 -5 8 C-5 7.34 -5 6.68 -5 6 C-5.66 5.67 -6.32 5.34 -7 5 C-4.69 3.35 -2.38 1.7 0 0 Z " fill="#232C42" transform="translate(124,102)"/>
<path d="M0 0 C2.97922593 -0.02683987 5.95821295 -0.04676037 8.9375 -0.0625 C9.78763672 -0.07087891 10.63777344 -0.07925781 11.51367188 -0.08789062 C12.32255859 -0.09111328 13.13144531 -0.09433594 13.96484375 -0.09765625 C14.7137085 -0.10289307 15.46257324 -0.10812988 16.23413086 -0.11352539 C18 0 18 0 19 1 C20.32594105 1.36162029 21.65938457 1.69728039 23 2 C21 4 21 4 17.9609375 4.1953125 C16.77757812 4.17210937 15.59421875 4.14890625 14.375 4.125 C13.18648438 4.10695313 11.99796875 4.08890625 10.7734375 4.0703125 C9.85820312 4.04710937 8.94296875 4.02390625 8 4 C9.32 3.34 10.64 2.68 12 2 C8.04 1.67 4.08 1.34 0 1 C0 0.67 0 0.34 0 0 Z " fill="#443C44" transform="translate(272,306)"/>
<path d="M0 0 C0.2475 0.53625 0.495 1.0725 0.75 1.625 C2.29665225 4.56363927 4.1451936 7.24770663 6 10 C6.33 10.66 6.66 11.32 7 12 C5.35 11.67 3.7 11.34 2 11 C1.01 12.485 1.01 12.485 0 14 C-0.99 13.01 -1.98 12.02 -3 11 C-2.67 10.01 -2.34 9.02 -2 8 C-1.67 8 -1.34 8 -1 8 C-0.67 5.36 -0.34 2.72 0 0 Z " fill="#D87112" transform="translate(228,228)"/>
<path d="M0 0 C0.33 0.66 0.66 1.32 1 2 C0.01 2.495 0.01 2.495 -1 3 C-0.34 4.32 0.32 5.64 1 7 C-3.75 10 -3.75 10 -6 10 C-6 9.34 -6 8.68 -6 8 C-6.99 7.67 -7.98 7.34 -9 7 C-6.03 4.69 -3.06 2.38 0 0 Z " fill="#202B42" transform="translate(110,112)"/>
<path d="M0 0 C4.67692308 1.47692308 4.67692308 1.47692308 6.3125 4.125 C6.539375 4.74375 6.76625 5.3625 7 6 C5.68 5.34 4.36 4.68 3 4 C2.01 5.98 1.02 7.96 0 10 C-1.32 10 -2.64 10 -4 10 C-4 8.68 -4 7.36 -4 6 C-2.68 6 -1.36 6 0 6 C0 4.68 0 3.36 0 2 C0 1.34 0 0.68 0 0 Z " fill="#1E1D29" transform="translate(162,64)"/>
<path d="M0 0 C1.32 0 2.64 0 4 0 C4 0.66 4 1.32 4 2 C5.32 2.33 6.64 2.66 8 3 C7.2575 3.268125 6.515 3.53625 5.75 3.8125 C2.97576085 4.86882225 2.97576085 4.86882225 0.875 6.6875 C0.25625 7.120625 -0.3625 7.55375 -1 8 C-1.99 7.67 -2.98 7.34 -4 7 C-3.67 6.34 -3.34 5.68 -3 5 C-2.34 5.33 -1.68 5.66 -1 6 C-1 5.34 -1 4.68 -1 4 C-1.66 4 -2.32 4 -3 4 C-2 2 -2 2 0 0 Z " fill="#EF7610" transform="translate(234,206)"/>
<path d="M0 0 C0.66 0.33 1.32 0.66 2 1 C0.68 3.31 -0.64 5.62 -2 8 C-2.66 8 -3.32 8 -4 8 C-4.4021875 9.1446875 -4.4021875 9.1446875 -4.8125 10.3125 C-5.94424112 12.87380884 -6.91223401 14.19692938 -9 16 C-8.11223998 12.30099992 -7.05418136 8.65449539 -6 5 C-5.34 5 -4.68 5 -4 5 C-3.67 4.01 -3.34 3.02 -3 2 C-2.01 2 -1.02 2 0 2 C0 1.34 0 0.68 0 0 Z " fill="#192A40" transform="translate(116,80)"/>
<path d="M0 0 C2.97 0 5.94 0 9 0 C9 1.32 9 2.64 9 4 C5.7 4 2.4 4 -1 4 C-0.67 2.68 -0.34 1.36 0 0 Z " fill="#040307" transform="translate(243,210)"/>
<path d="M0 0 C2.88916016 -0.34057617 2.88916016 -0.34057617 6.5390625 -0.29296875 C8.49199219 -0.2784668 8.49199219 -0.2784668 10.484375 -0.26367188 C11.86458923 -0.23860388 13.24479756 -0.21320902 14.625 -0.1875 C16.01300663 -0.17245517 17.40102867 -0.15876641 18.7890625 -0.14648438 C22.19309509 -0.1110257 25.59635622 -0.06160298 29 0 C29 0.33 29 0.66 29 1 C27.91114502 1.03758423 27.91114502 1.03758423 26.80029297 1.07592773 C23.49170554 1.19241241 20.18336624 1.31490014 16.875 1.4375 C15.73289063 1.47681641 14.59078125 1.51613281 13.4140625 1.55664062 C11.75117188 1.61948242 11.75117188 1.61948242 10.0546875 1.68359375 C9.03874512 1.72025146 8.02280273 1.75690918 6.97607422 1.79467773 C3.93266243 2.00464568 0.99914492 2.45061296 -2 3 C-1.34 2.01 -0.68 1.02 0 0 Z " fill="#FC7B11" transform="translate(238,201)"/>
<path d="M0 0 C0.99 0.33 1.98 0.66 3 1 C3 2.65 3 4.3 3 6 C3.66 6 4.32 6 5 6 C5 6.66 5 7.32 5 8 C4.401875 7.814375 3.80375 7.62875 3.1875 7.4375 C0.83591238 6.77906313 0.83591238 6.77906313 -2 8 C-2.99 7.67 -3.98 7.34 -5 7 C-3.35 4.69 -1.7 2.38 0 0 Z " fill="#F97205" transform="translate(261,232)"/>
<path d="M0 0 C0.33 0.66 0.66 1.32 1 2 C2.32 1.67 3.64 1.34 5 1 C5 2.32 5 3.64 5 5 C4.34 5 3.68 5 3 5 C3 6.32 3 7.64 3 9 C2.01 8.67 1.02 8.34 0 8 C0 7.34 0 6.68 0 6 C-0.66 5.67 -1.32 5.34 -2 5 C-2 2 -2 2 0 0 Z " fill="#272938" transform="translate(103,83)"/>
<path d="M0 0 C0.66 0.33 1.32 0.66 2 1 C1.67 1.99 1.34 2.98 1 4 C-1.5625 5.1875 -1.5625 5.1875 -4 6 C-4 6.66 -4 7.32 -4 8 C-6.64738916 9.4606285 -7.89448334 10 -11 10 C-11 9.34 -11 8.68 -11 8 C-10.01 8 -9.02 8 -8 8 C-8 7.34 -8 6.68 -8 6 C-7.01 6 -6.02 6 -5 6 C-4.731875 5.38125 -4.46375 4.7625 -4.1875 4.125 C-3 2 -3 2 0 0 Z " fill="#202343" transform="translate(187,66)"/>
<path d="M0 0 C0.33 0.66 0.66 1.32 1 2 C1.99 2 2.98 2 4 2 C4.33 2.99 4.66 3.98 5 5 C5.99 5.33 6.98 5.66 8 6 C8 6.66 8 7.32 8 8 C5.36 8 2.72 8 0 8 C0 5.36 0 2.72 0 0 Z " fill="#030508" transform="translate(234,230)"/>
<path d="M0 0 C0.99 0 1.98 0 3 0 C2.58578031 4.83256305 0.53586014 6.82679218 -3 10 C-3.66 9.67 -4.32 9.34 -5 9 C-4.33333333 7.66666667 -3.66666667 6.33333333 -3 5 C-2.4740625 3.9171875 -2.4740625 3.9171875 -1.9375 2.8125 C-1 1 -1 1 0 0 Z " fill="#1F1D2D" transform="translate(310,299)"/>
<path d="M0 0 C6.875 3.75 6.875 3.75 8 6 C8.43052797 10.9510716 8.16033363 11.78622182 5 16 C5 12.04 5 8.08 5 4 C3.68 3.67 2.36 3.34 1 3 C0.67 2.01 0.34 1.02 0 0 Z " fill="#D8781B" transform="translate(247,216)"/>
<path d="M0 0 C0.66 0 1.32 0 2 0 C2 0.66 2 1.32 2 2 C2.66 2 3.32 2 4 2 C4 2.66 4 3.32 4 4 C4.66 4 5.32 4 6 4 C5.67 5.32 5.34 6.64 5 8 C2.36 6.35 -0.28 4.7 -3 3 C-2.01 2.01 -1.02 1.02 0 0 Z " fill="#203148" transform="translate(152,66)"/>
<path d="M0 0 C1.32 0.66 2.64 1.32 4 2 C3 5 3 5 1 6 C1 7.32 1 8.64 1 10 C-0.32 9.67 -1.64 9.34 -3 9 C-2.01 6.03 -1.02 3.06 0 0 Z " fill="#201E2E" transform="translate(301,303)"/>
<path d="M0 0 C0 0.66 0 1.32 0 2 C-0.66 2 -1.32 2 -2 2 C-2 2.66 -2 3.32 -2 4 C-1.34 4 -0.68 4 0 4 C0 4.66 0 5.32 0 6 C-3.93673644 4.68775452 -6.22719294 3.08089673 -9 0 C-5.62182575 -0.84454356 -3.32534757 -1.10844919 0 0 Z " fill="#240D05" transform="translate(232,252)"/>
<path d="M0 0 C0 0.99 0 1.98 0 3 C-0.99 3 -1.98 3 -3 3 C-3.33 4.32 -3.66 5.64 -4 7 C-4.99 6.67 -5.98 6.34 -7 6 C-6.67 5.01 -6.34 4.02 -6 3 C-7.32 2.67 -8.64 2.34 -10 2 C-7.75858472 -0.24141528 -3.06492894 0 0 0 Z " fill="#030406" transform="translate(254,235)"/>
<path d="M0 0 C1.98 0 3.96 0 6 0 C5.71640113 1.4391134 5.42278601 2.87625518 5.125 4.3125 C4.96257812 5.11300781 4.80015625 5.91351563 4.6328125 6.73828125 C4 9 4 9 2 12 C1.34 11.67 0.68 11.34 0 11 C0.66 7.7 1.32 4.4 2 1 C1.34 0.67 0.68 0.34 0 0 Z " fill="#F77419" transform="translate(176,146)"/>
<path d="M0 0 C0.66 0.33 1.32 0.66 2 1 C-2.75 5 -2.75 5 -5 5 C-5 5.66 -5 6.32 -5 7 C-8 9 -8 9 -11 9 C-11 8.34 -11 7.68 -11 7 C-10.34 7 -9.68 7 -9 7 C-9 6.34 -9 5.68 -9 5 C-8.34 5 -7.68 5 -7 5 C-7 4.34 -7 3.68 -7 3 C-5.35 3 -3.7 3 -2 3 C-2 2.34 -2 1.68 -2 1 C-1.34 0.67 -0.68 0.34 0 0 Z " fill="#252548" transform="translate(145,97)"/>
<path d="M0 0 C1.65 1.32 3.3 2.64 5 4 C4 6 4 6 2 8 C1.01 8 0.02 8 -1 8 C-2.2077558 4.37673261 -1.54311128 3.35853631 0 0 Z " fill="#2D2C3C" transform="translate(278,106)"/>
<path d="M0 0 C1.65 0 3.3 0 5 0 C3.625 2 3.625 2 2 4 C1.34 4 0.68 4 0 4 C0 4.66 0 5.32 0 6 C-1.65 6.33 -3.3 6.66 -5 7 C-5 6.01 -5 5.02 -5 4 C-3.35 3.67 -1.7 3.34 0 3 C0 2.01 0 1.02 0 0 Z " fill="#E67714" transform="translate(296,298)"/>
<path d="M0 0 C1.32 0 2.64 0 4 0 C4.309375 0.78375 4.61875 1.5675 4.9375 2.375 C5.92875038 4.92330128 5.92875038 4.92330128 7 7 C6.01 8.485 6.01 8.485 5 10 C4.67 9.01 4.34 8.02 4 7 C3.01 7.495 3.01 7.495 2 8 C0.74335022 5.09399739 0 3.20395416 0 0 Z " fill="#F27408" transform="translate(272,188)"/>
<path d="M0 0 C0.66 0 1.32 0 2 0 C1.34 1.65 0.68 3.3 0 5 C0.66 5.33 1.32 5.66 2 6 C-0.31 7.65 -2.62 9.3 -5 11 C-5 7.63596525 -4.38119947 6.59907083 -2.625 3.8125 C-2.18414062 3.09707031 -1.74328125 2.38164063 -1.2890625 1.64453125 C-0.65097656 0.83048828 -0.65097656 0.83048828 0 0 Z " fill="#1A1A26" transform="translate(92,98)"/>
<path d="M0 0 C0 3 0 3 -1 6 C-0.34 6.66 0.32 7.32 1 8 C-0.32 8.33 -1.64 8.66 -3 9 C-3 8.34 -3 7.68 -3 7 C-3.99 6.67 -4.98 6.34 -6 6 C-6.66 5.34 -7.32 4.68 -8 4 C-5.50907189 2.75453595 -4.58919267 3.2232422 -2 4 C-1.34 2.68 -0.68 1.36 0 0 Z " fill="#312F40" transform="translate(300,306)"/>
<path d="M0 0 C0.33 0.66 0.66 1.32 1 2 C0.34 2 -0.32 2 -1 2 C-1 3.32 -1 4.64 -1 6 C-4.01031744 6.93423645 -4.86650268 7.04449911 -8 6 C-8 5.34 -8 4.68 -8 4 C-5.36 2.68 -2.72 1.36 0 0 Z " fill="#DB4C1A" transform="translate(69,142)"/>
<path d="M0 0 C5.30575444 -0.43489791 5.30575444 -0.43489791 8 0 C10.0625 2.3125 10.0625 2.3125 11 5 C10.67 5.99 10.34 6.98 10 8 C9.52949219 7.59007812 9.05898438 7.18015625 8.57421875 6.7578125 C7.95160156 6.21898437 7.32898438 5.68015625 6.6875 5.125 C6.07261719 4.59132812 5.45773437 4.05765625 4.82421875 3.5078125 C2.86501788 1.8359553 2.86501788 1.8359553 0 0 Z " fill="#3A231F" transform="translate(291,142)"/>
<path d="M0 0 C1.98 0.66 3.96 1.32 6 2 C6 1.34 6 0.68 6 0 C7.32 0 8.64 0 10 0 C10 0.66 10 1.32 10 2 C6.36576791 4.32590854 3.22911669 4.16265833 -1 4 C-1 1 -1 1 0 0 Z " fill="#EED231" transform="translate(112,124)"/>
<path d="M0 0 C3 1 3 1 4 3 C4.039992 4.99960012 4.04346799 7.00047242 4 9 C3.01 8.34 2.02 7.68 1 7 C1.33 6.67 1.66 6.34 2 6 C1.01 6 0.02 6 -1 6 C-0.67 4.02 -0.34 2.04 0 0 Z " fill="#221F2E" transform="translate(105,79)"/>
<path d="M0 0 C1.875 0.25 1.875 0.25 4 1 C5.25 3.0625 5.25 3.0625 6 5 C4.02 5.99 2.04 6.98 0 8 C0 5.33333333 0 2.66666667 0 0 Z " fill="#33A3ED" transform="translate(154,73)"/>
<path d="M0 0 C0.99 0.33 1.98 0.66 3 1 C-0.3 3.31 -3.6 5.62 -7 8 C-7 5.37886292 -6.68707555 3.49064888 -6 1 C-5.01 1.33 -4.02 1.66 -3 2 C-2.01 1.34 -1.02 0.68 0 0 Z " fill="#29261E" transform="translate(200,60)"/>
<path d="M0 0 C0.33 0.66 0.66 1.32 1 2 C0.01 2.33 -0.98 2.66 -2 3 C-1.67 4.98 -1.34 6.96 -1 9 C-2.98 7.68 -4.96 6.36 -7 5 C-6.67 3.68 -6.34 2.36 -6 1 C-4.02 0.67 -2.04 0.34 0 0 Z " fill="#36302D" transform="translate(232,50)"/>
<path d="M0 0 C3.375 0.25 3.375 0.25 7 1 C8.4375 3.0625 8.4375 3.0625 9 5 C8 6 8 6 5.4375 6.0625 C4.2309375 6.0315625 4.2309375 6.0315625 3 6 C3.33 4.68 3.66 3.36 4 2 C2.68 2 1.36 2 0 2 C0 1.34 0 0.68 0 0 Z " fill="#241C28" transform="translate(288,310)"/>
<path d="M0 0 C0.66 0.66 1.32 1.32 2 2 C1.25 4.4375 1.25 4.4375 0 7 C-2.125 7.8125 -2.125 7.8125 -4 8 C-4.33 7.01 -4.66 6.02 -5 5 C-4.34 5 -3.68 5 -3 5 C-2.87625 4.360625 -2.7525 3.72125 -2.625 3.0625 C-2.41875 2.381875 -2.2125 1.70125 -2 1 C-1.34 0.67 -0.68 0.34 0 0 Z " fill="#29273C" transform="translate(245,61)"/>
<path d="M0 0 C0.99 0 1.98 0 3 0 C3 1.98 3 3.96 3 6 C3.66 6 4.32 6 5 6 C4.67 6.99 4.34 7.98 4 9 C4 8.34 4 7.68 4 7 C2.02 7.99 0.04 8.98 -2 10 C-1.67 9.0925 -1.34 8.185 -1 7.25 C0.19605723 3.92954193 0.19605723 3.92954193 0 0 Z " fill="#2D2A3A" transform="translate(309,292)"/>
<path d="M0 0 C0 2.62113708 -0.31292445 4.50935112 -1 7 C-2.32 7 -3.64 7 -5 7 C-4.75 4.625 -4.75 4.625 -4 2 C-1.9375 0.6875 -1.9375 0.6875 0 0 Z " fill="#221107" transform="translate(230,192)"/>
<path d="M0 0 C0 0.99 0 1.98 0 3 C0.66 3.33 1.32 3.66 2 4 C2 4.66 2 5.32 2 6 C-1 8 -1 8 -4 8 C-4 6.35 -4 4.7 -4 3 C-3.34 3 -2.68 3 -2 3 C-2 2.34 -2 1.68 -2 1 C-1.34 0.67 -0.68 0.34 0 0 Z " fill="#1D263E" transform="translate(116,108)"/>
<path d="M0 0 C0.33 0.66 0.66 1.32 1 2 C0.34 2.66 -0.32 3.32 -1 4 C-1 5.32 -1 6.64 -1 8 C-1.66 8 -2.32 8 -3 8 C-3.433125 6.5459375 -3.433125 6.5459375 -3.875 5.0625 C-4.64214682 1.89335797 -4.64214682 1.89335797 -7 1 C-3.535 0.505 -3.535 0.505 0 0 Z " fill="#F1D847" transform="translate(245,70)"/>
<path d="M0 0 C0.66 0 1.32 0 2 0 C2.125 5.75 2.125 5.75 1 8 C0.01 8 -0.98 8 -2 8 C-2.125 5.125 -2.125 5.125 -2 2 C-1.34 1.34 -0.68 0.68 0 0 Z " fill="#1F2032" transform="translate(314,290)"/>
<path d="M0 0 C0.33 0.66 0.66 1.32 1 2 C1.99 2 2.98 2 4 2 C5.38671875 3.75 5.38671875 3.75 6.6875 6 C7.34298828 7.11375 7.34298828 7.11375 8.01171875 8.25 C8.33785156 8.8275 8.66398437 9.405 9 10 C8.01 10.495 8.01 10.495 7 11 C6.4225 10.05125 5.845 9.1025 5.25 8.125 C3.17183449 5.23865902 2.24531925 4.15904259 -1 3 C-0.67 2.01 -0.34 1.02 0 0 Z " fill="#1C1C28" transform="translate(285,117)"/>
<path d="M0 0 C0.33 0.66 0.66 1.32 1 2 C1.99 2.33 2.98 2.66 4 3 C1.69 4.65 -0.62 6.3 -3 8 C-3.33 7.34 -3.66 6.68 -4 6 C-2.68 4.02 -1.36 2.04 0 0 Z " fill="#399CD3" transform="translate(89,122)"/>
<path d="M0 0 C0 0.99 0 1.98 0 3 C-0.99 3.495 -0.99 3.495 -2 4 C-2 4.66 -2 5.32 -2 6 C-6.625 8.125 -6.625 8.125 -10 7 C-6.7 4.69 -3.4 2.38 0 0 Z " fill="#E4D64A" transform="translate(124,116)"/>
<path d="M0 0 C0.99 0.33 1.98 0.66 3 1 C2.25 5.75 2.25 5.75 0 8 C-3.125 8.125 -3.125 8.125 -6 8 C-6.33 7.34 -6.66 6.68 -7 6 C-6.21625 6.04125 -5.4325 6.0825 -4.625 6.125 C-1.83883881 6.28728734 -1.83883881 6.28728734 0 4 C0 2.68 0 1.36 0 0 Z " fill="#2A251E" transform="translate(245,63)"/>
<path d="M0 0 C0.66 0.99 1.32 1.98 2 3 C-0.75 8.875 -0.75 8.875 -3 10 C-3 9.34 -3 8.68 -3 8 C-3.66 7.67 -4.32 7.34 -5 7 C-4.01 6.34 -3.02 5.68 -2 5 C-2 4.01 -2 3.02 -2 2 C-1.34 2 -0.68 2 0 2 C0 1.34 0 0.68 0 0 Z " fill="#2A2839" transform="translate(306,302)"/>
<path d="M0 0 C0 4.5 0 4.5 -2 7 C-4.69913905 7.67203054 -7.20291781 7.81954308 -10 8 C-7 6 -7 6 -5 6 C-5 5.34 -5 4.68 -5 4 C-3.37373596 2.61767557 -1.7074998 1.28062485 0 0 Z " fill="#45281F" transform="translate(301,298)"/>
<path d="M0 0 C1.32 0 2.64 0 4 0 C3.67 0.99 3.34 1.98 3 3 C2.9314505 4.89470816 2.91519628 6.7916834 2.9375 8.6875 C2.94652344 9.68136719 2.95554688 10.67523438 2.96484375 11.69921875 C2.97644531 12.45847656 2.98804688 13.21773437 3 14 C2.34 14 1.68 14 1 14 C0.67 9.38 0.34 4.76 0 0 Z " fill="#220F04" transform="translate(234,218)"/>
<path d="M0 0 C1.32 0 2.64 0 4 0 C4 0.66 4 1.32 4 2 C3.01 2.495 3.01 2.495 2 3 C2.66 3.33 3.32 3.66 4 4 C4 4.66 4 5.32 4 6 C-0.75 5.25 -0.75 5.25 -3 3 C-2.01 2.67 -1.02 2.34 0 2 C0 1.34 0 0.68 0 0 Z " fill="#F1710A" transform="translate(236,184)"/>
<path d="M0 0 C0.66 0.33 1.32 0.66 2 1 C1.6875 2.875 1.6875 2.875 1 5 C0.01 5.66 -0.98 6.32 -2 7 C-3.19232613 9.05003955 -3.19232613 9.05003955 -4 11 C-3.56179109 6.44262737 -3.14958831 3.42346555 0 0 Z " fill="#CD4F22" transform="translate(59,149)"/>
<path d="M0 0 C0.33 1.32 0.66 2.64 1 4 C-0.32 4.33 -1.64 4.66 -3 5 C-3 5.66 -3 6.32 -3 7 C-3.99 7 -4.98 7 -6 7 C-6 6.34 -6 5.68 -6 5 C-5.34 5 -4.68 5 -4 5 C-3.71125 4.360625 -3.4225 3.72125 -3.125 3.0625 C-2 1 -2 1 0 0 Z " fill="#2A2229" transform="translate(128,101)"/>
<path d="M0 0 C0.66 0.33 1.32 0.66 2 1 C2 2.32 2 3.64 2 5 C1.34 4.67 0.68 4.34 0 4 C-1.65 5.65 -3.3 7.3 -5 9 C-3.7508258 5.54074837 -2.32472205 2.85306797 0 0 Z " fill="#191823" transform="translate(100,87)"/>
<path d="M0 0 C2.25245881 2.68841859 3.88213958 4.64641875 5 8 C4.34 8.66 3.68 9.32 3 10 C3 9.34 3 8.68 3 8 C2.34 8 1.68 8 1 8 C1 7.34 1 6.68 1 6 C0.34 5.67 -0.32 5.34 -1 5 C-0.67 3.35 -0.34 1.7 0 0 Z " fill="#F0D338" transform="translate(247,72)"/>
<path d="M0 0 C2 1 2 1 3 3 C1.35 3 -0.3 3 -2 3 C-2 3.66 -2 4.32 -2 5 C-2.99 5.66 -3.98 6.32 -5 7 C-5.99 6.67 -6.98 6.34 -8 6 C-7.01 5.67 -6.02 5.34 -5 5 C-4.67 4.01 -4.34 3.02 -4 2 C-2.0625 0.75 -2.0625 0.75 0 0 Z " fill="#F9D81F" transform="translate(194,69)"/>
<path d="M0 0 C1.65 0 3.3 0 5 0 C4.67 0.99 4.34 1.98 4 3 C4.66 3.33 5.32 3.66 6 4 C4.35 5.32 2.7 6.64 1 8 C0.67 5.36 0.34 2.72 0 0 Z " fill="#1F2C46" transform="translate(123,63)"/>
<path d="M0 0 C-1.27079593 3.8123878 -2.60677884 4.027197 -6 6 C-7.36984198 7.29579647 -8.7151049 8.61992749 -10 10 C-9.43867066 6.4628562 -8.30442253 5.00738321 -5.5625 2.75 C-4.94503906 2.22921875 -4.32757813 1.7084375 -3.69140625 1.171875 C-2 0 -2 0 0 0 Z " fill="#0F0E1A" transform="translate(60,135)"/>
<path d="M0 0 C0.66 0.33 1.32 0.66 2 1 C1.67 1.66 1.34 2.32 1 3 C1.66 3 2.32 3 3 3 C3 3.66 3 4.32 3 5 C2.01 5.66 1.02 6.32 0 7 C-0.99 6.67 -1.98 6.34 -3 6 C-2.01 4.02 -1.02 2.04 0 0 Z " fill="#201F28" transform="translate(111,119)"/>
<path d="M0 0 C1.0625 1.875 1.0625 1.875 2 4 C1.67 4.66 1.34 5.32 1 6 C0.34 6 -0.32 6 -1 6 C-1 6.66 -1 7.32 -1 8 C-1.99 8 -2.98 8 -4 8 C-3.67 6.68 -3.34 5.36 -3 4 C-2.34 4 -1.68 4 -1 4 C-0.67 2.68 -0.34 1.36 0 0 Z " fill="#22A4FE" transform="translate(107,98)"/>
<path d="M0 0 C0.75 1.75 0.75 1.75 1 4 C-0.8125 6.25 -0.8125 6.25 -3 8 C-3.66 8 -4.32 8 -5 8 C-3.375 2.25 -3.375 2.25 0 0 Z " fill="#1EA3FA" transform="translate(115,88)"/>
<path d="M0 0 C3.59905908 0.55550695 4.99909799 1.74887248 7.25 4.5625 C8.03117188 5.52349609 8.03117188 5.52349609 8.828125 6.50390625 C9.21484375 6.99761719 9.6015625 7.49132813 10 8 C9.01 8.33 8.02 8.66 7 9 C6.401875 8.071875 5.80375 7.14375 5.1875 6.1875 C3.54727155 3.79745282 2.1281083 1.91529747 0 0 Z " fill="#E9DC57" transform="translate(224,55)"/>
<path d="M0 0 C1.65 0 3.3 0 5 0 C3.68 2.64 2.36 5.28 1 8 C0.67 8 0.34 8 0 8 C0 5.36 0 2.72 0 0 Z " fill="#04050A" transform="translate(214,208)"/>
<path d="M0 0 C-0.99 0 -1.98 0 -3 0 C-3 0.99 -3 1.98 -3 3 C-4.65 3.33 -6.3 3.66 -8 4 C-8 3.01 -8 2.02 -8 1 C-4.93251126 -0.86240388 -3.40254489 -1.2151946 0 0 Z " fill="#34343F" transform="translate(68,132)"/>
<path d="M0 0 C1.5 1.375 1.5 1.375 3 3 C3 3.66 3 4.32 3 5 C3.66 5 4.32 5 5 5 C5 5.99 5 6.98 5 8 C4.34 8 3.68 8 3 8 C3 7.34 3 6.68 3 6 C2.34 6 1.68 6 1 6 C1 5.34 1 4.68 1 4 C0.34 4 -0.32 4 -1 4 C-1.33 3.01 -1.66 2.02 -2 1 C-1.34 0.67 -0.68 0.34 0 0 Z " fill="#F7DC23" transform="translate(263,106)"/>
<path d="M0 0 C0.99 0.33 1.98 0.66 3 1 C2.67 2.32 2.34 3.64 2 5 C1.34 5 0.68 5 0 5 C0 5.66 0 6.32 0 7 C-0.66 7 -1.32 7 -2 7 C-1.125 2.25 -1.125 2.25 0 0 Z " fill="#28212C" transform="translate(116,75)"/>
<path d="M0 0 C0.66 0 1.32 0 2 0 C1.38461538 6.52307692 1.38461538 6.52307692 -0.5625 8.9375 C-1.036875 9.288125 -1.51125 9.63875 -2 10 C-1.46274105 6.62294375 -0.88935377 3.303314 0 0 Z " fill="#35211D" transform="translate(305,288)"/>
<path d="M0 0 C0.33 0 0.66 0 1 0 C1.25 2.75 1.25 2.75 1 6 C-1 8.375 -1 8.375 -3 10 C-3 8.68 -3 7.36 -3 6 C-2.34 6 -1.68 6 -1 6 C-1.0309375 4.7934375 -1.0309375 4.7934375 -1.0625 3.5625 C-1 1 -1 1 0 0 Z " fill="#1E0901" transform="translate(261,226)"/>
<path d="M0 0 C0.66 0.33 1.32 0.66 2 1 C0.02 3.97 -1.96 6.94 -4 10 C-5 6 -5 6 -4.00390625 4.296875 C-2.66927083 2.86458333 -1.33463542 1.43229167 0 0 Z " fill="#1D2646" transform="translate(90,118)"/>
<path d="M0 0 C4.875 4.75 4.875 4.75 6 7 C4.35 7 2.7 7 1 7 C0.67 4.69 0.34 2.38 0 0 Z " fill="#31323C" transform="translate(269,93)"/>
<path d="M0 0 C1.14814997 2.29629994 1.30769809 4.07698086 1.5625 6.625 C1.64628906 7.44226563 1.73007813 8.25953125 1.81640625 9.1015625 C1.87699219 9.72804688 1.93757812 10.35453125 2 11 C-0.76165256 8.43933024 -1.71234794 6.83536086 -2 3 C-1.34 2.01 -0.68 1.02 0 0 Z " fill="#382F16" transform="translate(252,79)"/>
<path d="M0 0 C0 3 0 3 -1 6 C-2.32 5.67 -3.64 5.34 -5 5 C-4.67 3.68 -4.34 2.36 -4 1 C-2.68 0.67 -1.36 0.34 0 0 Z " fill="#2E2A38" transform="translate(117,66)"/>
<path d="M0 0 C0.7425 0.495 0.7425 0.495 1.5 1 C5.09090894 2.43636358 8.14456127 2.12851462 12 2 C11.67 2.66 11.34 3.32 11 4 C7.7 4 4.4 4 1 4 C0.67 2.68 0.34 1.36 0 0 Z " fill="#4D1A04" transform="translate(238,232)"/>
<path d="M0 0 C0.33 0.66 0.66 1.32 1 2 C0.34 2 -0.32 2 -1 2 C-1.33 2.99 -1.66 3.98 -2 5 C-2.99 4.67 -3.98 4.34 -5 4 C-5 4.66 -5 5.32 -5 6 C-5.66 6 -6.32 6 -7 6 C-5.9024777 3.00675737 -5.32317108 2.15389099 -2.375 0.75 C-1.59125 0.5025 -0.8075 0.255 0 0 Z " fill="#230903" transform="translate(239,210)"/>
<path d="M0 0 C0.66 0 1.32 0 2 0 C1.67 1.32 1.34 2.64 1 4 C1.66 4 2.32 4 3 4 C3 4.66 3 5.32 3 6 C1.35 6 -0.3 6 -2 6 C-2.33 5.01 -2.66 4.02 -3 3 C-2.01 2.67 -1.02 2.34 0 2 C0 1.34 0 0.68 0 0 Z " fill="#24202D" transform="translate(111,112)"/>
<path d="M0 0 C1.65 0.33 3.3 0.66 5 1 C2.31158141 3.25245881 0.35358125 4.88213958 -3 6 C-2.67 5.01 -2.34 4.02 -2 3 C-1.34 3 -0.68 3 0 3 C0 2.01 0 1.02 0 0 Z " fill="#30A1E5" transform="translate(107,110)"/>
<path d="M0 0 C0.8353125 0.37125 0.8353125 0.37125 1.6875 0.75 C-0.5625 2.8125 -0.5625 2.8125 -3.3125 4.75 C-5.625 4.5 -5.625 4.5 -7.3125 3.75 C-2.88173077 -0.31153846 -2.88173077 -0.31153846 0 0 Z " fill="#DDCE4E" transform="translate(152.3125,97.25)"/>
<path d="M0 0 C2.3125 0.1875 2.3125 0.1875 4 1 C1.06171403 3.50298434 -1.17902761 4.46930939 -5 5 C-2.75 2.4375 -2.75 2.4375 0 0 Z " fill="#173049" transform="translate(131,97)"/>
<path d="M0 0 C0.66 0.33 1.32 0.66 2 1 C0.10595266 4.34243648 -0.94091591 4.97997149 -4.6875 6.25 C-6.3271875 6.62125 -6.3271875 6.62125 -8 7 C-5.42215154 4.35247996 -3.08351902 2.05567935 0 0 Z " fill="#D3C74F" transform="translate(190,69)"/>
<path d="M0 0 C0 0.66 0 1.32 0 2 C0.66 2.33 1.32 2.66 2 3 C-4.625 3.25 -4.625 3.25 -8 1 C-5.23735711 0.40267181 -2.83967231 0 0 0 Z " fill="#30120A" transform="translate(240,257)"/>
<path d="M0 0 C1.98 0 3.96 0 6 0 C6.33 1.98 6.66 3.96 7 6 C6.67 5.34 6.34 4.68 6 4 C5.01 3.67 4.02 3.34 3 3 C3 2.34 3 1.68 3 1 C2.01 0.67 1.02 0.34 0 0 Z " fill="#C96F15" transform="translate(253,210)"/>
<path d="M0 0 C1.9375 0.3125 1.9375 0.3125 4 1 C4.33 1.99 4.66 2.98 5 4 C4.67 4.66 4.34 5.32 4 6 C3.34 6 2.68 6 2 6 C1.34 4.02 0.68 2.04 0 0 Z " fill="#292738" transform="translate(285,121)"/>
<path d="M0 0 C0.99 0.33 1.98 0.66 3 1 C1.64002141 3.71995718 -0.34062482 4.67031241 -3 6 C-3.66 5.34 -4.32 4.68 -5 4 C-2.6875 1.9375 -2.6875 1.9375 0 0 Z " fill="#E4D44A" transform="translate(142,103)"/>
<path d="M0 0 C0 2 0 2 -1.125 3.5625 C-3.63946978 5.49026016 -5.89545967 5.65505107 -9 6 C-3.2 0 -3.2 0 0 0 Z " fill="#E3D44A" transform="translate(181,77)"/>
<path d="M0 0 C0 3 0 3 -1 5 C-2.32 5 -3.64 5 -5 5 C-5 3.68 -5 2.36 -5 1 C-3.35 0.67 -1.7 0.34 0 0 Z " fill="#26212E" transform="translate(163,69)"/>
<path d="M0 0 C2.125 0.9375 2.125 0.9375 4 2 C4 2.66 4 3.32 4 4 C2.02 4.33 0.04 4.66 -2 5 C-2 3.68 -2 2.36 -2 1 C-1.34 0.67 -0.68 0.34 0 0 Z " fill="#29283A" transform="translate(178,67)"/>
<path d="M0 0 C0.33 1.32 0.66 2.64 1 4 C0.34 4 -0.32 4 -1 4 C-1.33 5.32 -1.66 6.64 -2 8 C-2.99 7.67 -3.98 7.34 -5 7 C-3.35 4.69 -1.7 2.38 0 0 Z " fill="#D47418" transform="translate(261,232)"/>
<path d="M0 0 C1.9453125 -0.29296875 1.9453125 -0.29296875 4.125 -0.1875 C5.40375 -0.125625 6.6825 -0.06375 8 0 C4.73454239 1.88391785 1.71888239 2.49287967 -2 3 C-1.34 2.01 -0.68 1.02 0 0 Z " fill="#E57D1F" transform="translate(238,201)"/>
<path d="M0 0 C3 1 3 1 4.6875 4.0625 C5.120625 5.031875 5.55375 6.00125 6 7 C5.34 7 4.68 7 4 7 C4 6.34 4 5.68 4 5 C2.68 4.34 1.36 3.68 0 3 C0 2.01 0 1.02 0 0 Z " fill="#D7C842" transform="translate(274,120)"/>
<path d="M0 0 C1.32 0.66 2.64 1.32 4 2 C3.01 2.495 3.01 2.495 2 3 C1.67 3.66 1.34 4.32 1 5 C0.01 4.67 -0.98 4.34 -2 4 C-1.34 2.68 -0.68 1.36 0 0 Z " fill="#2A2A38" transform="translate(273,100)"/>
</svg>
